<svg class="d-inline" width="18" height="18" viewBox="0 0 18 18" fill="none" xmlns="http://www.w3.org/2000/svg"><path fill-rule="evenodd" clip-rule="evenodd" d="M9 2.25C9.41421 2.25 9.75 2.58579 9.75 3V10.1893L12.2197 7.71967C12.5126 7.42678 12.9874 7.42678 13.2803 7.71967C13.5732 8.01256 13.5732 8.48744 13.2803 8.78033L9.53033 12.5303C9.23744 12.8232 8.76256 12.8232 8.46967 12.5303L4.71967 8.78033C4.42678 8.48744 4.42678 8.01256 4.71967 7.71967C5.01256 7.42678 5.48744 7.42678 5.78033 7.71967L8.25 10.1893V3C8.25 2.58579 8.58579 2.25 9 2.25ZM3 12C3.41421 12 3.75 12.3358 3.75 12.75V14.25C3.75 14.4489 3.82902 14.6397 3.96967 14.7803C4.11032 14.921 4.30109 15 4.5 15H13.5C13.6989 15 13.8897 14.921 14.0303 14.7803C14.171 14.6397 14.25 14.4489 14.25 14.25V12.75C14.25 12.3358 14.5858 12 15 12C15.4142 12 15.75 12.3358 15.75 12.75V14.25C15.75 14.8467 15.5129 15.419 15.091 15.841C14.669 16.2629 14.0967 16.5 13.5 16.5H4.5C3.90326 16.5 3.33097 16.2629 2.90901 15.841C2.48705 15.419 2.25 14.8467 2.25 14.25V12.75C2.25 12.3358 2.58579 12 3 12Z" fill="#137a83"></path></svg>