<svg width="30" height="30" viewBox="0 0 30 30" fill="none" xmlns="http://www.w3.org/2000/svg">
<rect opacity="0.1" width="30" height="30" rx="5" fill="white"/>
<path fill-rule="evenodd" clip-rule="evenodd" d="M14.4 8.39999V6.90821C14.4 5.74622 13.4588 4.79999 12.3 4.79999H12.2969C11.1412 4.79999 10.2 5.74622 10.2 6.90821C10.2 7.49074 10.4361 8.0178 10.8162 8.39999H14.4ZM15.6 8.39999V6.90821C15.6 5.74622 16.5412 4.79999 17.7 4.79999H17.7031C18.8588 4.79999 19.8 5.74622 19.8 6.90821C19.8 7.49074 19.5639 8.0178 19.1838 8.39999H15.6ZM4.79999 12.4154V9.78117C4.79999 9.34757 5.151 9 5.5846 9H12.6V13.2H5.5846C5.151 13.2 4.79999 12.849 4.79999 12.4154ZM25.2 9.78117V12.4154C25.2 12.849 24.849 13.2 24.4154 13.2H17.4V9H24.4154C24.849 9 25.2 9.34757 25.2 9.78117ZM7.77663 24.6C6.87845 24.6 6.15234 23.8739 6.15234 22.9757V13.8H12.6V24.6H7.77663ZM23.8477 22.9757C23.8477 23.8739 23.1215 24.6 22.2234 24.6H17.4V13.8H23.8477V22.9757ZM13.2 9H16.8V24.6H13.2V9Z" fill="white"/>
</svg>
