<svg width="46" height="47" viewBox="0 0 46 47" fill="none" xmlns="http://www.w3.org/2000/svg">
<path d="M27.6274 15.1306L1 41.758L4.53553 45.2935L31.163 18.6661L27.6274 15.1306Z" stroke="white" stroke-width="2" stroke-miterlimit="10" stroke-linecap="round" stroke-linejoin="round"/>
<path d="M42.9044 3.36383L39.9816 9.10016L44.534 13.6525L38.0798 12.7409L35.1092 18.525L34.0782 12.19L27.7075 11.1948L33.5334 8.18253L32.6157 1.73425L37.1681 6.28664L42.9044 3.36383Z" stroke="white" stroke-width="2" stroke-miterlimit="10" stroke-linecap="round" stroke-linejoin="round"/>
<path d="M23.3848 19.3732L26.9203 22.9087" stroke="white" stroke-width="2" stroke-miterlimit="10" stroke-linecap="round" stroke-linejoin="round"/>
<path d="M34.7673 32.2918L36.0783 34.6889L38.4755 36L36.0783 37.311L34.7673 39.7082L33.4562 37.311L31.0591 36L33.4562 34.6889L34.7673 32.2918Z" stroke="white" stroke-width="2" stroke-miterlimit="10" stroke-linecap="round" stroke-linejoin="round"/>
<path d="M10.7673 7.29178L13.139 11.6283L17.4755 14L13.139 16.3717L10.7673 20.7082L8.39558 16.3717L4.05908 14L8.39558 11.6283L10.7673 7.29178Z" stroke="white" stroke-width="2" stroke-miterlimit="10" stroke-linecap="round" stroke-linejoin="round"/>
</svg>
