<svg width="25" height="20" viewBox="0 0 25 20" fill="none" xmlns="http://www.w3.org/2000/svg">
<path d="M19.6252 20C18.5897 20 17.6857 19.8269 16.9132 19.4808C16.1571 19.1183 15.5325 18.6403 15.0394 18.047C14.5464 17.4536 14.1765 16.7614 13.93 15.9703C13.6834 15.1792 13.5602 14.3387 13.5602 13.4487C13.5602 11.6687 13.8231 10.0618 14.3491 8.62794C14.8915 7.17759 15.5901 5.90029 16.4448 4.79604C17.2995 3.67532 18.2446 2.71941 19.2801 1.92831C20.332 1.12073 21.3675 0.477956 22.3866 0L23.1016 0.964153C21.6552 2.3321 20.5046 3.55171 19.6499 4.62299C18.7952 5.67779 18.3678 6.55954 18.3678 7.26823C18.3678 7.69675 18.5487 8.04285 18.9103 8.30655C19.2719 8.57025 19.7156 8.80923 20.2416 9.02349C20.7512 9.22126 21.2853 9.44376 21.8442 9.69098C22.403 9.9382 22.9126 10.2678 23.3728 10.6799C23.8494 11.0754 24.2357 11.5781 24.5316 12.1879C24.8439 12.7977 25 13.5723 25 14.5117C25 15.0721 24.8849 15.6737 24.6548 16.3164C24.4412 16.9592 24.1042 17.5525 23.644 18.0964C23.2002 18.6403 22.6414 19.0935 21.9675 19.4561C21.2936 19.8187 20.5128 20 19.6252 20ZM6.06509 20C5.02959 20 4.12558 19.8269 3.35306 19.4808C2.59698 19.1183 1.97239 18.6403 1.47929 18.047C0.986193 17.4536 0.616371 16.7614 0.369822 15.9703C0.123274 15.1792 0 14.3387 0 13.4487C0 11.6687 0.262985 10.0618 0.788955 8.62794C1.33136 7.17759 2.02991 5.90029 2.88462 4.79604C3.73932 3.67532 4.68442 2.71941 5.71992 1.92831C6.77186 1.12073 7.80736 0.477956 8.82643 0L9.54142 0.964153C8.095 2.3321 6.94444 3.55171 6.08974 4.62299C5.23504 5.67779 4.80769 6.55954 4.80769 7.26823C4.80769 7.69675 4.98849 8.04285 5.3501 8.30655C5.7117 8.57025 6.15549 8.80923 6.68146 9.02349C7.19099 9.22126 7.72518 9.44376 8.28402 9.69098C8.84287 9.9382 9.3524 10.2678 9.81262 10.6799C10.2893 11.0754 10.6755 11.5781 10.9714 12.1879C11.2837 12.7977 11.4398 13.5723 11.4398 14.5117C11.4398 15.0721 11.3248 15.6737 11.0947 16.3164C10.881 16.9592 10.544 17.5525 10.0838 18.0964C9.64004 18.6403 9.0812 19.0935 8.4073 19.4561C7.7334 19.8187 6.95266 20 6.06509 20Z" fill="#137a83"/>
</svg>
