<svg width="16" height="16" viewBox="0 0 16 16" fill="none" xmlns="http://www.w3.org/2000/svg">
<path d="M1.32129 15.7729L5.67742 11.4168V14.7097C5.67742 15.1355 6.02581 15.4839 6.45161 15.4839C6.87742 15.4839 7.22581 15.1355 7.22581 14.7097V11.0968C7.22581 9.81678 6.18323 8.7742 4.90323 8.7742H1.29032C0.864516 8.7742 0.516129 9.12259 0.516129 9.54839C0.516129 9.9742 0.864516 10.3226 1.29032 10.3226H4.58323L0.227097 14.6787C0.0799998 14.8258 0 15.0194 0 15.2258C0 15.4323 0.0799998 15.6258 0.227097 15.7729C0.518709 16.0645 1.02968 16.0645 1.32129 15.7729Z" fill="#137a83"/>
<path d="M13.5819 0H10.6761C9.34193 0 8.25806 1.08387 8.25806 2.41806V5.32387C8.25806 6.65807 9.34193 7.74194 10.6761 7.74194H13.5819C14.9161 7.74194 16 6.65807 16 5.32387V2.41806C16 1.08387 14.9161 0 13.5819 0ZM14.4516 5.32387C14.4516 5.80387 14.0619 6.19355 13.5819 6.19355H10.6761C10.1961 6.19355 9.80644 5.80387 9.80644 5.32387V2.41806C9.80644 1.93806 10.1961 1.54839 10.6761 1.54839H13.5819C14.0619 1.54839 14.4516 1.93806 14.4516 2.41806V5.32387Z" fill="#137a83"/>
<path d="M0.774194 6.19356C1.2 6.19356 1.54839 5.84518 1.54839 5.41937V3.34453C1.54839 2.64001 2.12129 2.06453 2.82839 2.06453H4.90323C5.32903 2.06453 5.67742 1.71614 5.67742 1.29034C5.67742 0.864531 5.32903 0.516144 4.90323 0.516144H2.82839C1.26968 0.516144 0 1.78582 0 3.34453V5.41937C0 5.84518 0.348387 6.19356 0.774194 6.19356Z" fill="#137a83"/>
<path d="M12.6554 16C14.2141 16 15.4838 14.7303 15.4838 13.1716V11.0968C15.4838 10.671 15.1354 10.3226 14.7096 10.3226C14.2838 10.3226 13.9354 10.671 13.9354 11.0968V13.1716C13.9354 13.8761 13.3625 14.4516 12.6554 14.4516H10.5806C10.1548 14.4516 9.8064 14.8 9.8064 15.2258C9.8064 15.6516 10.1548 16 10.5806 16H12.6554Z" fill="#137a83"/>
</svg>
