<svg width="424" height="242" viewBox="0 0 424 242" fill="none" xmlns="http://www.w3.org/2000/svg">
<path d="M212 56L212 34" stroke="#9DE8EE" stroke-width="3" stroke-dasharray="6 6"/>
<rect opacity="0.2" x="2" y="56" width="420" height="180" rx="20" fill="#9DE8EE"/>
<g filter="url(#filter0_d_73_46)">
<rect x="32" y="86" width="360" height="120" rx="20" fill="#CAFBFF"/>
</g>
<rect x="52" y="103" width="319" height="25" rx="5" fill="#9DE8EE"/>
<rect x="52" y="133" width="319" height="25" rx="5" fill="#9DE8EE"/>
<rect x="52" y="163" width="319" height="25" rx="5" fill="#9DE8EE"/>
<path d="M63.846 117.83H59.59L58.806 120H57.462L60.99 110.298H62.46L65.974 120H64.63L63.846 117.83ZM63.482 116.794L61.718 111.866L59.954 116.794H63.482ZM68.7856 110.242V120H67.5116V110.242H68.7856ZM74.2133 115.114C74.2133 114.162 74.428 113.308 74.8573 112.552C75.2867 111.787 75.87 111.189 76.6073 110.76C77.354 110.331 78.18 110.116 79.0853 110.116C80.1493 110.116 81.078 110.373 81.8713 110.886C82.6647 111.399 83.2433 112.127 83.6073 113.07H82.0813C81.8107 112.482 81.4187 112.029 80.9053 111.712C80.4013 111.395 79.7947 111.236 79.0853 111.236C78.404 111.236 77.7927 111.395 77.2513 111.712C76.71 112.029 76.2853 112.482 75.9773 113.07C75.6693 113.649 75.5153 114.33 75.5153 115.114C75.5153 115.889 75.6693 116.57 75.9773 117.158C76.2853 117.737 76.71 118.185 77.2513 118.502C77.7927 118.819 78.404 118.978 79.0853 118.978C79.7947 118.978 80.4013 118.824 80.9053 118.516C81.4187 118.199 81.8107 117.746 82.0813 117.158H83.6073C83.2433 118.091 82.6647 118.815 81.8713 119.328C81.078 119.832 80.1493 120.084 79.0853 120.084C78.18 120.084 77.354 119.874 76.6073 119.454C75.87 119.025 75.2867 118.432 74.8573 117.676C74.428 116.92 74.2133 116.066 74.2133 115.114ZM88.8498 120.126C88.1311 120.126 87.4778 119.963 86.8898 119.636C86.3111 119.309 85.8538 118.847 85.5178 118.25C85.1911 117.643 85.0278 116.943 85.0278 116.15C85.0278 115.366 85.1958 114.675 85.5318 114.078C85.8771 113.471 86.3438 113.009 86.9318 112.692C87.5198 112.365 88.1778 112.202 88.9058 112.202C89.6338 112.202 90.2918 112.365 90.8798 112.692C91.4678 113.009 91.9298 113.467 92.2658 114.064C92.6111 114.661 92.7838 115.357 92.7838 116.15C92.7838 116.943 92.6064 117.643 92.2518 118.25C91.9064 118.847 91.4351 119.309 90.8378 119.636C90.2404 119.963 89.5778 120.126 88.8498 120.126ZM88.8498 119.006C89.3071 119.006 89.7364 118.899 90.1378 118.684C90.5391 118.469 90.8611 118.147 91.1038 117.718C91.3558 117.289 91.4818 116.766 91.4818 116.15C91.4818 115.534 91.3604 115.011 91.1178 114.582C90.8751 114.153 90.5578 113.835 90.1658 113.63C89.7738 113.415 89.3491 113.308 88.8918 113.308C88.4251 113.308 87.9958 113.415 87.6038 113.63C87.2211 113.835 86.9131 114.153 86.6798 114.582C86.4464 115.011 86.3298 115.534 86.3298 116.15C86.3298 116.775 86.4418 117.303 86.6658 117.732C86.8991 118.161 87.2071 118.483 87.5898 118.698C87.9724 118.903 88.3924 119.006 88.8498 119.006ZM98.1969 112.188C99.1302 112.188 99.8862 112.473 100.465 113.042C101.044 113.602 101.333 114.414 101.333 115.478V120H100.073V115.66C100.073 114.895 99.8815 114.311 99.4989 113.91C99.1162 113.499 98.5935 113.294 97.9309 113.294C97.2589 113.294 96.7222 113.504 96.3209 113.924C95.9289 114.344 95.7329 114.955 95.7329 115.758V120H94.4589V112.328H95.7329V113.42C95.9849 113.028 96.3255 112.725 96.7549 112.51C97.1935 112.295 97.6742 112.188 98.1969 112.188ZM104.968 113.378V117.9C104.968 118.273 105.047 118.539 105.206 118.698C105.365 118.847 105.64 118.922 106.032 118.922H106.97V120H105.822C105.113 120 104.581 119.837 104.226 119.51C103.871 119.183 103.694 118.647 103.694 117.9V113.378H102.7V112.328H103.694V110.396H104.968V112.328H106.97V113.378H104.968ZM115.514 115.87C115.514 116.113 115.5 116.369 115.472 116.64H109.34C109.386 117.396 109.643 117.989 110.11 118.418C110.586 118.838 111.16 119.048 111.832 119.048C112.382 119.048 112.84 118.922 113.204 118.67C113.577 118.409 113.838 118.063 113.988 117.634H115.36C115.154 118.371 114.744 118.973 114.128 119.44C113.512 119.897 112.746 120.126 111.832 120.126C111.104 120.126 110.45 119.963 109.872 119.636C109.302 119.309 108.854 118.847 108.528 118.25C108.201 117.643 108.038 116.943 108.038 116.15C108.038 115.357 108.196 114.661 108.514 114.064C108.831 113.467 109.274 113.009 109.844 112.692C110.422 112.365 111.085 112.202 111.832 112.202C112.56 112.202 113.204 112.361 113.764 112.678C114.324 112.995 114.753 113.434 115.052 113.994C115.36 114.545 115.514 115.17 115.514 115.87ZM114.198 115.604C114.198 115.119 114.09 114.703 113.876 114.358C113.661 114.003 113.367 113.737 112.994 113.56C112.63 113.373 112.224 113.28 111.776 113.28C111.132 113.28 110.581 113.485 110.124 113.896C109.676 114.307 109.419 114.876 109.354 115.604H114.198ZM120.933 112.188C121.867 112.188 122.623 112.473 123.201 113.042C123.78 113.602 124.069 114.414 124.069 115.478V120H122.809V115.66C122.809 114.895 122.618 114.311 122.235 113.91C121.853 113.499 121.33 113.294 120.667 113.294C119.995 113.294 119.459 113.504 119.057 113.924C118.665 114.344 118.469 114.955 118.469 115.758V120H117.195V112.328H118.469V113.42C118.721 113.028 119.062 112.725 119.491 112.51C119.93 112.295 120.411 112.188 120.933 112.188ZM127.704 113.378V117.9C127.704 118.273 127.784 118.539 127.942 118.698C128.101 118.847 128.376 118.922 128.768 118.922H129.706V120H128.558C127.849 120 127.317 119.837 126.962 119.51C126.608 119.183 126.43 118.647 126.43 117.9V113.378H125.436V112.328H126.43V110.396H127.704V112.328H129.706V113.378H127.704ZM142.374 113.07C142.104 112.501 141.712 112.062 141.198 111.754C140.685 111.437 140.088 111.278 139.406 111.278C138.725 111.278 138.109 111.437 137.558 111.754C137.017 112.062 136.588 112.51 136.27 113.098C135.962 113.677 135.808 114.349 135.808 115.114C135.808 115.879 135.962 116.551 136.27 117.13C136.588 117.709 137.017 118.157 137.558 118.474C138.109 118.782 138.725 118.936 139.406 118.936C140.358 118.936 141.142 118.651 141.758 118.082C142.374 117.513 142.734 116.743 142.836 115.772H138.944V114.736H144.194V115.716C144.12 116.519 143.868 117.256 143.438 117.928C143.009 118.591 142.444 119.118 141.744 119.51C141.044 119.893 140.265 120.084 139.406 120.084C138.501 120.084 137.675 119.874 136.928 119.454C136.182 119.025 135.589 118.432 135.15 117.676C134.721 116.92 134.506 116.066 134.506 115.114C134.506 114.162 134.721 113.308 135.15 112.552C135.589 111.787 136.182 111.194 136.928 110.774C137.675 110.345 138.501 110.13 139.406 110.13C140.442 110.13 141.357 110.387 142.15 110.9C142.953 111.413 143.536 112.137 143.9 113.07H142.374ZM152.879 115.87C152.879 116.113 152.865 116.369 152.837 116.64H146.705C146.751 117.396 147.008 117.989 147.475 118.418C147.951 118.838 148.525 119.048 149.197 119.048C149.747 119.048 150.205 118.922 150.569 118.67C150.942 118.409 151.203 118.063 151.353 117.634H152.725C152.519 118.371 152.109 118.973 151.493 119.44C150.877 119.897 150.111 120.126 149.197 120.126C148.469 120.126 147.815 119.963 147.237 119.636C146.667 119.309 146.219 118.847 145.893 118.25C145.566 117.643 145.403 116.943 145.403 116.15C145.403 115.357 145.561 114.661 145.879 114.064C146.196 113.467 146.639 113.009 147.209 112.692C147.787 112.365 148.45 112.202 149.197 112.202C149.925 112.202 150.569 112.361 151.129 112.678C151.689 112.995 152.118 113.434 152.417 113.994C152.725 114.545 152.879 115.17 152.879 115.87ZM151.563 115.604C151.563 115.119 151.455 114.703 151.241 114.358C151.026 114.003 150.732 113.737 150.359 113.56C149.995 113.373 149.589 113.28 149.141 113.28C148.497 113.28 147.946 113.485 147.489 113.896C147.041 114.307 146.784 114.876 146.719 115.604H151.563ZM158.298 112.188C159.232 112.188 159.988 112.473 160.566 113.042C161.145 113.602 161.434 114.414 161.434 115.478V120H160.174V115.66C160.174 114.895 159.983 114.311 159.6 113.91C159.218 113.499 158.695 113.294 158.032 113.294C157.36 113.294 156.824 113.504 156.422 113.924C156.03 114.344 155.834 114.955 155.834 115.758V120H154.56V112.328H155.834V113.42C156.086 113.028 156.427 112.725 156.856 112.51C157.295 112.295 157.776 112.188 158.298 112.188ZM170.516 115.87C170.516 116.113 170.502 116.369 170.474 116.64H164.342C164.388 117.396 164.645 117.989 165.112 118.418C165.588 118.838 166.162 119.048 166.834 119.048C167.384 119.048 167.842 118.922 168.206 118.67C168.579 118.409 168.84 118.063 168.99 117.634H170.362C170.156 118.371 169.746 118.973 169.13 119.44C168.514 119.897 167.748 120.126 166.834 120.126C166.106 120.126 165.452 119.963 164.874 119.636C164.304 119.309 163.856 118.847 163.53 118.25C163.203 117.643 163.04 116.943 163.04 116.15C163.04 115.357 163.198 114.661 163.516 114.064C163.833 113.467 164.276 113.009 164.846 112.692C165.424 112.365 166.087 112.202 166.834 112.202C167.562 112.202 168.206 112.361 168.766 112.678C169.326 112.995 169.755 113.434 170.054 113.994C170.362 114.545 170.516 115.17 170.516 115.87ZM169.2 115.604C169.2 115.119 169.092 114.703 168.878 114.358C168.663 114.003 168.369 113.737 167.996 113.56C167.632 113.373 167.226 113.28 166.778 113.28C166.134 113.28 165.583 113.485 165.126 113.896C164.678 114.307 164.421 114.876 164.356 115.604H169.2ZM173.471 113.574C173.695 113.135 174.012 112.795 174.423 112.552C174.843 112.309 175.352 112.188 175.949 112.188V113.504H175.613C174.185 113.504 173.471 114.279 173.471 115.828V120H172.197V112.328H173.471V113.574ZM176.944 116.136C176.944 115.352 177.102 114.666 177.42 114.078C177.737 113.481 178.171 113.019 178.722 112.692C179.282 112.365 179.902 112.202 180.584 112.202C181.256 112.202 181.839 112.347 182.334 112.636C182.828 112.925 183.197 113.289 183.44 113.728V112.328H184.728V120H183.44V118.572C183.188 119.02 182.81 119.393 182.306 119.692C181.811 119.981 181.232 120.126 180.57 120.126C179.888 120.126 179.272 119.958 178.722 119.622C178.171 119.286 177.737 118.815 177.42 118.208C177.102 117.601 176.944 116.911 176.944 116.136ZM183.44 116.15C183.44 115.571 183.323 115.067 183.09 114.638C182.856 114.209 182.539 113.882 182.138 113.658C181.746 113.425 181.312 113.308 180.836 113.308C180.36 113.308 179.926 113.42 179.534 113.644C179.142 113.868 178.829 114.195 178.596 114.624C178.362 115.053 178.246 115.557 178.246 116.136C178.246 116.724 178.362 117.237 178.596 117.676C178.829 118.105 179.142 118.437 179.534 118.67C179.926 118.894 180.36 119.006 180.836 119.006C181.312 119.006 181.746 118.894 182.138 118.67C182.539 118.437 182.856 118.105 183.09 117.676C183.323 117.237 183.44 116.729 183.44 116.15ZM188.435 113.378V117.9C188.435 118.273 188.514 118.539 188.673 118.698C188.831 118.847 189.107 118.922 189.499 118.922H190.437V120H189.289C188.579 120 188.047 119.837 187.693 119.51C187.338 119.183 187.161 118.647 187.161 117.9V113.378H186.167V112.328H187.161V110.396H188.435V112.328H190.437V113.378H188.435ZM195.326 120.126C194.608 120.126 193.954 119.963 193.366 119.636C192.788 119.309 192.33 118.847 191.994 118.25C191.668 117.643 191.504 116.943 191.504 116.15C191.504 115.366 191.672 114.675 192.008 114.078C192.354 113.471 192.82 113.009 193.408 112.692C193.996 112.365 194.654 112.202 195.382 112.202C196.11 112.202 196.768 112.365 197.356 112.692C197.944 113.009 198.406 113.467 198.742 114.064C199.088 114.661 199.26 115.357 199.26 116.15C199.26 116.943 199.083 117.643 198.728 118.25C198.383 118.847 197.912 119.309 197.314 119.636C196.717 119.963 196.054 120.126 195.326 120.126ZM195.326 119.006C195.784 119.006 196.213 118.899 196.614 118.684C197.016 118.469 197.338 118.147 197.58 117.718C197.832 117.289 197.958 116.766 197.958 116.15C197.958 115.534 197.837 115.011 197.594 114.582C197.352 114.153 197.034 113.835 196.642 113.63C196.25 113.415 195.826 113.308 195.368 113.308C194.902 113.308 194.472 113.415 194.08 113.63C193.698 113.835 193.39 114.153 193.156 114.582C192.923 115.011 192.806 115.534 192.806 116.15C192.806 116.775 192.918 117.303 193.142 117.732C193.376 118.161 193.684 118.483 194.066 118.698C194.449 118.903 194.869 119.006 195.326 119.006ZM202.209 113.574C202.433 113.135 202.751 112.795 203.161 112.552C203.581 112.309 204.09 112.188 204.687 112.188V113.504H204.351C202.923 113.504 202.209 114.279 202.209 115.828V120H200.935V112.328H202.209V113.574ZM215.897 110.242V111.278H213.237V120H211.963V111.278H209.289V110.242H215.897ZM220.811 120.126C220.092 120.126 219.439 119.963 218.851 119.636C218.272 119.309 217.815 118.847 217.479 118.25C217.152 117.643 216.989 116.943 216.989 116.15C216.989 115.366 217.157 114.675 217.493 114.078C217.838 113.471 218.305 113.009 218.893 112.692C219.481 112.365 220.139 112.202 220.867 112.202C221.595 112.202 222.253 112.365 222.841 112.692C223.429 113.009 223.891 113.467 224.227 114.064C224.572 114.661 224.745 115.357 224.745 116.15C224.745 116.943 224.567 117.643 224.213 118.25C223.867 118.847 223.396 119.309 222.799 119.636C222.201 119.963 221.539 120.126 220.811 120.126ZM220.811 119.006C221.268 119.006 221.697 118.899 222.099 118.684C222.5 118.469 222.822 118.147 223.065 117.718C223.317 117.289 223.443 116.766 223.443 116.15C223.443 115.534 223.321 115.011 223.079 114.582C222.836 114.153 222.519 113.835 222.127 113.63C221.735 113.415 221.31 113.308 220.853 113.308C220.386 113.308 219.957 113.415 219.565 113.63C219.182 113.835 218.874 114.153 218.641 114.582C218.407 115.011 218.291 115.534 218.291 116.15C218.291 116.775 218.403 117.303 218.627 117.732C218.86 118.161 219.168 118.483 219.551 118.698C219.933 118.903 220.353 119.006 220.811 119.006ZM229.766 120.126C229.047 120.126 228.394 119.963 227.806 119.636C227.227 119.309 226.77 118.847 226.434 118.25C226.107 117.643 225.944 116.943 225.944 116.15C225.944 115.366 226.112 114.675 226.448 114.078C226.793 113.471 227.26 113.009 227.848 112.692C228.436 112.365 229.094 112.202 229.822 112.202C230.55 112.202 231.208 112.365 231.796 112.692C232.384 113.009 232.846 113.467 233.182 114.064C233.527 114.661 233.7 115.357 233.7 116.15C233.7 116.943 233.522 117.643 233.168 118.25C232.822 118.847 232.351 119.309 231.754 119.636C231.156 119.963 230.494 120.126 229.766 120.126ZM229.766 119.006C230.223 119.006 230.652 118.899 231.054 118.684C231.455 118.469 231.777 118.147 232.02 117.718C232.272 117.289 232.398 116.766 232.398 116.15C232.398 115.534 232.276 115.011 232.034 114.582C231.791 114.153 231.474 113.835 231.082 113.63C230.69 113.415 230.265 113.308 229.808 113.308C229.341 113.308 228.912 113.415 228.52 113.63C228.137 113.835 227.829 114.153 227.596 114.582C227.362 115.011 227.246 115.534 227.246 116.15C227.246 116.775 227.358 117.303 227.582 117.732C227.815 118.161 228.123 118.483 228.506 118.698C228.888 118.903 229.308 119.006 229.766 119.006ZM236.649 109.64V120H235.375V109.64H236.649ZM242.077 116.15C242.077 115.357 242.235 114.666 242.553 114.078C242.87 113.481 243.309 113.019 243.869 112.692C244.438 112.365 245.087 112.202 245.815 112.202C246.757 112.202 247.532 112.431 248.139 112.888C248.755 113.345 249.161 113.98 249.357 114.792H247.985C247.854 114.325 247.597 113.957 247.215 113.686C246.841 113.415 246.375 113.28 245.815 113.28C245.087 113.28 244.499 113.532 244.051 114.036C243.603 114.531 243.379 115.235 243.379 116.15C243.379 117.074 243.603 117.788 244.051 118.292C244.499 118.796 245.087 119.048 245.815 119.048C246.375 119.048 246.841 118.917 247.215 118.656C247.588 118.395 247.845 118.021 247.985 117.536H249.357C249.151 118.32 248.741 118.95 248.125 119.426C247.509 119.893 246.739 120.126 245.815 120.126C245.087 120.126 244.438 119.963 243.869 119.636C243.309 119.309 242.87 118.847 242.553 118.25C242.235 117.653 242.077 116.953 242.077 116.15ZM252.331 113.574C252.555 113.135 252.872 112.795 253.283 112.552C253.703 112.309 254.211 112.188 254.809 112.188V113.504H254.473C253.045 113.504 252.331 114.279 252.331 115.828V120H251.057V112.328H252.331V113.574ZM263.279 115.87C263.279 116.113 263.265 116.369 263.237 116.64H257.105C257.152 117.396 257.409 117.989 257.875 118.418C258.351 118.838 258.925 119.048 259.597 119.048C260.148 119.048 260.605 118.922 260.969 118.67C261.343 118.409 261.604 118.063 261.753 117.634H263.125C262.92 118.371 262.509 118.973 261.893 119.44C261.277 119.897 260.512 120.126 259.597 120.126C258.869 120.126 258.216 119.963 257.637 119.636C257.068 119.309 256.62 118.847 256.293 118.25C255.967 117.643 255.803 116.943 255.803 116.15C255.803 115.357 255.962 114.661 256.279 114.064C256.597 113.467 257.04 113.009 257.609 112.692C258.188 112.365 258.851 112.202 259.597 112.202C260.325 112.202 260.969 112.361 261.529 112.678C262.089 112.995 262.519 113.434 262.817 113.994C263.125 114.545 263.279 115.17 263.279 115.87ZM261.963 115.604C261.963 115.119 261.856 114.703 261.641 114.358C261.427 114.003 261.133 113.737 260.759 113.56C260.395 113.373 259.989 113.28 259.541 113.28C258.897 113.28 258.347 113.485 257.889 113.896C257.441 114.307 257.185 114.876 257.119 115.604H261.963ZM264.485 116.136C264.485 115.352 264.643 114.666 264.961 114.078C265.278 113.481 265.712 113.019 266.263 112.692C266.823 112.365 267.443 112.202 268.125 112.202C268.797 112.202 269.38 112.347 269.875 112.636C270.369 112.925 270.738 113.289 270.981 113.728V112.328H272.269V120H270.981V118.572C270.729 119.02 270.351 119.393 269.847 119.692C269.352 119.981 268.773 120.126 268.111 120.126C267.429 120.126 266.813 119.958 266.263 119.622C265.712 119.286 265.278 118.815 264.961 118.208C264.643 117.601 264.485 116.911 264.485 116.136ZM270.981 116.15C270.981 115.571 270.864 115.067 270.631 114.638C270.397 114.209 270.08 113.882 269.679 113.658C269.287 113.425 268.853 113.308 268.377 113.308C267.901 113.308 267.467 113.42 267.075 113.644C266.683 113.868 266.37 114.195 266.137 114.624C265.903 115.053 265.787 115.557 265.787 116.136C265.787 116.724 265.903 117.237 266.137 117.676C266.37 118.105 266.683 118.437 267.075 118.67C267.467 118.894 267.901 119.006 268.377 119.006C268.853 119.006 269.287 118.894 269.679 118.67C270.08 118.437 270.397 118.105 270.631 117.676C270.864 117.237 270.981 116.729 270.981 116.15ZM275.976 113.378V117.9C275.976 118.273 276.055 118.539 276.214 118.698C276.372 118.847 276.648 118.922 277.04 118.922H277.978V120H276.83C276.12 120 275.588 119.837 275.234 119.51C274.879 119.183 274.702 118.647 274.702 117.9V113.378H273.708V112.328H274.702V110.396H275.976V112.328H277.978V113.378H275.976ZM286.521 115.87C286.521 116.113 286.507 116.369 286.479 116.64H280.347C280.394 117.396 280.651 117.989 281.117 118.418C281.593 118.838 282.167 119.048 282.839 119.048C283.39 119.048 283.847 118.922 284.211 118.67C284.585 118.409 284.846 118.063 284.995 117.634H286.367C286.162 118.371 285.751 118.973 285.135 119.44C284.519 119.897 283.754 120.126 282.839 120.126C282.111 120.126 281.458 119.963 280.879 119.636C280.31 119.309 279.862 118.847 279.535 118.25C279.209 117.643 279.045 116.943 279.045 116.15C279.045 115.357 279.204 114.661 279.521 114.064C279.839 113.467 280.282 113.009 280.851 112.692C281.43 112.365 282.093 112.202 282.839 112.202C283.567 112.202 284.211 112.361 284.771 112.678C285.331 112.995 285.761 113.434 286.059 113.994C286.367 114.545 286.521 115.17 286.521 115.87ZM285.205 115.604C285.205 115.119 285.098 114.703 284.883 114.358C284.669 114.003 284.375 113.737 284.001 113.56C283.637 113.373 283.231 113.28 282.783 113.28C282.139 113.28 281.589 113.485 281.131 113.896C280.683 114.307 280.427 114.876 280.361 115.604H285.205ZM290.919 120.126C290.331 120.126 289.804 120.028 289.337 119.832C288.87 119.627 288.502 119.347 288.231 118.992C287.96 118.628 287.811 118.213 287.783 117.746H289.099C289.136 118.129 289.314 118.441 289.631 118.684C289.958 118.927 290.382 119.048 290.905 119.048C291.39 119.048 291.773 118.941 292.053 118.726C292.333 118.511 292.473 118.241 292.473 117.914C292.473 117.578 292.324 117.331 292.025 117.172C291.726 117.004 291.264 116.841 290.639 116.682C290.07 116.533 289.603 116.383 289.239 116.234C288.884 116.075 288.576 115.847 288.315 115.548C288.063 115.24 287.937 114.839 287.937 114.344C287.937 113.952 288.054 113.593 288.287 113.266C288.52 112.939 288.852 112.683 289.281 112.496C289.71 112.3 290.2 112.202 290.751 112.202C291.6 112.202 292.286 112.417 292.809 112.846C293.332 113.275 293.612 113.863 293.649 114.61H292.375C292.347 114.209 292.184 113.887 291.885 113.644C291.596 113.401 291.204 113.28 290.709 113.28C290.252 113.28 289.888 113.378 289.617 113.574C289.346 113.77 289.211 114.027 289.211 114.344C289.211 114.596 289.29 114.806 289.449 114.974C289.617 115.133 289.822 115.263 290.065 115.366C290.317 115.459 290.662 115.567 291.101 115.688C291.652 115.837 292.1 115.987 292.445 116.136C292.79 116.276 293.084 116.491 293.327 116.78C293.579 117.069 293.71 117.447 293.719 117.914C293.719 118.334 293.602 118.712 293.369 119.048C293.136 119.384 292.804 119.65 292.375 119.846C291.955 120.033 291.47 120.126 290.919 120.126ZM298.774 116.15C298.774 115.357 298.933 114.666 299.25 114.078C299.567 113.481 300.006 113.019 300.566 112.692C301.135 112.365 301.784 112.202 302.512 112.202C303.455 112.202 304.229 112.431 304.836 112.888C305.452 113.345 305.858 113.98 306.054 114.792H304.682C304.551 114.325 304.295 113.957 303.912 113.686C303.539 113.415 303.072 113.28 302.512 113.28C301.784 113.28 301.196 113.532 300.748 114.036C300.3 114.531 300.076 115.235 300.076 116.15C300.076 117.074 300.3 117.788 300.748 118.292C301.196 118.796 301.784 119.048 302.512 119.048C303.072 119.048 303.539 118.917 303.912 118.656C304.285 118.395 304.542 118.021 304.682 117.536H306.054C305.849 118.32 305.438 118.95 304.822 119.426C304.206 119.893 303.436 120.126 302.512 120.126C301.784 120.126 301.135 119.963 300.566 119.636C300.006 119.309 299.567 118.847 299.25 118.25C298.933 117.653 298.774 116.953 298.774 116.15ZM311.1 120.126C310.381 120.126 309.728 119.963 309.14 119.636C308.561 119.309 308.104 118.847 307.768 118.25C307.441 117.643 307.278 116.943 307.278 116.15C307.278 115.366 307.446 114.675 307.782 114.078C308.127 113.471 308.594 113.009 309.182 112.692C309.77 112.365 310.428 112.202 311.156 112.202C311.884 112.202 312.542 112.365 313.13 112.692C313.718 113.009 314.18 113.467 314.516 114.064C314.861 114.661 315.034 115.357 315.034 116.15C315.034 116.943 314.856 117.643 314.502 118.25C314.156 118.847 313.685 119.309 313.088 119.636C312.49 119.963 311.828 120.126 311.1 120.126ZM311.1 119.006C311.557 119.006 311.986 118.899 312.388 118.684C312.789 118.469 313.111 118.147 313.354 117.718C313.606 117.289 313.732 116.766 313.732 116.15C313.732 115.534 313.61 115.011 313.368 114.582C313.125 114.153 312.808 113.835 312.416 113.63C312.024 113.415 311.599 113.308 311.142 113.308C310.675 113.308 310.246 113.415 309.854 113.63C309.471 113.835 309.163 114.153 308.93 114.582C308.696 115.011 308.58 115.534 308.58 116.15C308.58 116.775 308.692 117.303 308.916 117.732C309.149 118.161 309.457 118.483 309.84 118.698C310.222 118.903 310.642 119.006 311.1 119.006ZM320.447 112.188C321.38 112.188 322.136 112.473 322.715 113.042C323.294 113.602 323.583 114.414 323.583 115.478V120H322.323V115.66C322.323 114.895 322.132 114.311 321.749 113.91C321.366 113.499 320.844 113.294 320.181 113.294C319.509 113.294 318.972 113.504 318.571 113.924C318.179 114.344 317.983 114.955 317.983 115.758V120H316.709V112.328H317.983V113.42C318.235 113.028 318.576 112.725 319.005 112.51C319.444 112.295 319.924 112.188 320.447 112.188ZM327.218 113.378V117.9C327.218 118.273 327.297 118.539 327.456 118.698C327.615 118.847 327.89 118.922 328.282 118.922H329.22V120H328.072C327.363 120 326.831 119.837 326.476 119.51C326.121 119.183 325.944 118.647 325.944 117.9V113.378H324.95V112.328H325.944V110.396H327.218V112.328H329.22V113.378H327.218ZM337.764 115.87C337.764 116.113 337.75 116.369 337.722 116.64H331.59C331.636 117.396 331.893 117.989 332.36 118.418C332.836 118.838 333.41 119.048 334.082 119.048C334.632 119.048 335.09 118.922 335.454 118.67C335.827 118.409 336.088 118.063 336.238 117.634H337.61C337.404 118.371 336.994 118.973 336.378 119.44C335.762 119.897 334.996 120.126 334.082 120.126C333.354 120.126 332.7 119.963 332.122 119.636C331.552 119.309 331.104 118.847 330.778 118.25C330.451 117.643 330.288 116.943 330.288 116.15C330.288 115.357 330.446 114.661 330.764 114.064C331.081 113.467 331.524 113.009 332.094 112.692C332.672 112.365 333.335 112.202 334.082 112.202C334.81 112.202 335.454 112.361 336.014 112.678C336.574 112.995 337.003 113.434 337.302 113.994C337.61 114.545 337.764 115.17 337.764 115.87ZM336.448 115.604C336.448 115.119 336.34 114.703 336.126 114.358C335.911 114.003 335.617 113.737 335.244 113.56C334.88 113.373 334.474 113.28 334.026 113.28C333.382 113.28 332.831 113.485 332.374 113.896C331.926 114.307 331.669 114.876 331.604 115.604H336.448ZM343.183 112.188C344.117 112.188 344.873 112.473 345.451 113.042C346.03 113.602 346.319 114.414 346.319 115.478V120H345.059V115.66C345.059 114.895 344.868 114.311 344.485 113.91C344.103 113.499 343.58 113.294 342.917 113.294C342.245 113.294 341.709 113.504 341.307 113.924C340.915 114.344 340.719 114.955 340.719 115.758V120H339.445V112.328H340.719V113.42C340.971 113.028 341.312 112.725 341.741 112.51C342.18 112.295 342.661 112.188 343.183 112.188ZM349.954 113.378V117.9C349.954 118.273 350.034 118.539 350.192 118.698C350.351 118.847 350.626 118.922 351.018 118.922H351.956V120H350.808C350.099 120 349.567 119.837 349.212 119.51C348.858 119.183 348.68 118.647 348.68 117.9V113.378H347.686V112.328H348.68V110.396H349.954V112.328H351.956V113.378H349.954Z" fill="#424242"/>
<path d="M61.2 143.378H59.59V150H58.316V143.378H57.322V142.328H58.316V141.782C58.316 140.923 58.5353 140.298 58.974 139.906C59.422 139.505 60.136 139.304 61.116 139.304V140.368C60.556 140.368 60.1593 140.48 59.926 140.704C59.702 140.919 59.59 141.278 59.59 141.782V142.328H61.2V143.378ZM66.0314 150.126C65.3128 150.126 64.6594 149.963 64.0714 149.636C63.4928 149.309 63.0354 148.847 62.6994 148.25C62.3728 147.643 62.2094 146.943 62.2094 146.15C62.2094 145.366 62.3774 144.675 62.7134 144.078C63.0588 143.471 63.5254 143.009 64.1134 142.692C64.7014 142.365 65.3594 142.202 66.0874 142.202C66.8154 142.202 67.4734 142.365 68.0614 142.692C68.6494 143.009 69.1114 143.467 69.4474 144.064C69.7928 144.661 69.9654 145.357 69.9654 146.15C69.9654 146.943 69.7881 147.643 69.4334 148.25C69.0881 148.847 68.6168 149.309 68.0194 149.636C67.4221 149.963 66.7594 150.126 66.0314 150.126ZM66.0314 149.006C66.4888 149.006 66.9181 148.899 67.3194 148.684C67.7208 148.469 68.0428 148.147 68.2854 147.718C68.5374 147.289 68.6634 146.766 68.6634 146.15C68.6634 145.534 68.5421 145.011 68.2994 144.582C68.0568 144.153 67.7394 143.835 67.3474 143.63C66.9554 143.415 66.5308 143.308 66.0734 143.308C65.6068 143.308 65.1774 143.415 64.7854 143.63C64.4028 143.835 64.0948 144.153 63.8614 144.582C63.6281 145.011 63.5114 145.534 63.5114 146.15C63.5114 146.775 63.6234 147.303 63.8474 147.732C64.0808 148.161 64.3888 148.483 64.7714 148.698C65.1541 148.903 65.5741 149.006 66.0314 149.006ZM72.9145 143.574C73.1385 143.135 73.4558 142.795 73.8665 142.552C74.2865 142.309 74.7952 142.188 75.3925 142.188V143.504H75.0565C73.6285 143.504 72.9145 144.279 72.9145 145.828V150H71.6405V142.328H72.9145V143.574ZM80.1196 146.136C80.1196 145.352 80.2782 144.666 80.5956 144.078C80.9129 143.481 81.3469 143.019 81.8976 142.692C82.4576 142.365 83.0782 142.202 83.7596 142.202C84.4316 142.202 85.0149 142.347 85.5096 142.636C86.0042 142.925 86.3729 143.289 86.6156 143.728V142.328H87.9036V150H86.6156V148.572C86.3636 149.02 85.9856 149.393 85.4816 149.692C84.9869 149.981 84.4082 150.126 83.7456 150.126C83.0642 150.126 82.4482 149.958 81.8976 149.622C81.3469 149.286 80.9129 148.815 80.5956 148.208C80.2782 147.601 80.1196 146.911 80.1196 146.136ZM86.6156 146.15C86.6156 145.571 86.4989 145.067 86.2656 144.638C86.0322 144.209 85.7149 143.882 85.3136 143.658C84.9216 143.425 84.4876 143.308 84.0116 143.308C83.5356 143.308 83.1016 143.42 82.7096 143.644C82.3176 143.868 82.0049 144.195 81.7716 144.624C81.5382 145.053 81.4216 145.557 81.4216 146.136C81.4216 146.724 81.5382 147.237 81.7716 147.676C82.0049 148.105 82.3176 148.437 82.7096 148.67C83.1016 148.894 83.5356 149.006 84.0116 149.006C84.4876 149.006 84.9216 148.894 85.3136 148.67C85.7149 148.437 86.0322 148.105 86.2656 147.676C86.4989 147.237 86.6156 146.729 86.6156 146.15ZM104.009 142.328L101.615 150H100.299L98.4509 143.91L96.6029 150H95.2869L92.8789 142.328H94.1809L95.9449 148.768L97.8489 142.328H99.1509L101.013 148.782L102.749 142.328H104.009ZM105.931 141.082C105.689 141.082 105.483 140.998 105.315 140.83C105.147 140.662 105.063 140.457 105.063 140.214C105.063 139.971 105.147 139.766 105.315 139.598C105.483 139.43 105.689 139.346 105.931 139.346C106.165 139.346 106.361 139.43 106.519 139.598C106.687 139.766 106.771 139.971 106.771 140.214C106.771 140.457 106.687 140.662 106.519 140.83C106.361 140.998 106.165 141.082 105.931 141.082ZM106.547 142.328V150H105.273V142.328H106.547ZM108.243 146.136C108.243 145.352 108.401 144.666 108.719 144.078C109.036 143.481 109.47 143.019 110.021 142.692C110.581 142.365 111.206 142.202 111.897 142.202C112.494 142.202 113.049 142.342 113.563 142.622C114.076 142.893 114.468 143.252 114.739 143.7V139.64H116.027V150H114.739V148.558C114.487 149.015 114.113 149.393 113.619 149.692C113.124 149.981 112.545 150.126 111.883 150.126C111.201 150.126 110.581 149.958 110.021 149.622C109.47 149.286 109.036 148.815 108.719 148.208C108.401 147.601 108.243 146.911 108.243 146.136ZM114.739 146.15C114.739 145.571 114.622 145.067 114.389 144.638C114.155 144.209 113.838 143.882 113.437 143.658C113.045 143.425 112.611 143.308 112.135 143.308C111.659 143.308 111.225 143.42 110.833 143.644C110.441 143.868 110.128 144.195 109.895 144.624C109.661 145.053 109.545 145.557 109.545 146.136C109.545 146.724 109.661 147.237 109.895 147.676C110.128 148.105 110.441 148.437 110.833 148.67C111.225 148.894 111.659 149.006 112.135 149.006C112.611 149.006 113.045 148.894 113.437 148.67C113.838 148.437 114.155 148.105 114.389 147.676C114.622 147.237 114.739 146.729 114.739 146.15ZM125.18 145.87C125.18 146.113 125.166 146.369 125.138 146.64H119.006C119.052 147.396 119.309 147.989 119.776 148.418C120.252 148.838 120.826 149.048 121.498 149.048C122.048 149.048 122.506 148.922 122.87 148.67C123.243 148.409 123.504 148.063 123.654 147.634H125.026C124.82 148.371 124.41 148.973 123.794 149.44C123.178 149.897 122.412 150.126 121.498 150.126C120.77 150.126 120.116 149.963 119.538 149.636C118.968 149.309 118.52 148.847 118.194 148.25C117.867 147.643 117.704 146.943 117.704 146.15C117.704 145.357 117.862 144.661 118.18 144.064C118.497 143.467 118.94 143.009 119.51 142.692C120.088 142.365 120.751 142.202 121.498 142.202C122.226 142.202 122.87 142.361 123.43 142.678C123.99 142.995 124.419 143.434 124.718 143.994C125.026 144.545 125.18 145.17 125.18 145.87ZM123.864 145.604C123.864 145.119 123.756 144.703 123.542 144.358C123.327 144.003 123.033 143.737 122.66 143.56C122.296 143.373 121.89 143.28 121.442 143.28C120.798 143.28 120.247 143.485 119.79 143.896C119.342 144.307 119.085 144.876 119.02 145.604H123.864ZM131.868 143.574C132.092 143.135 132.409 142.795 132.82 142.552C133.24 142.309 133.748 142.188 134.346 142.188V143.504H134.01C132.582 143.504 131.868 144.279 131.868 145.828V150H130.594V142.328H131.868V143.574ZM135.34 146.136C135.34 145.352 135.499 144.666 135.816 144.078C136.134 143.481 136.568 143.019 137.118 142.692C137.678 142.365 138.299 142.202 138.98 142.202C139.652 142.202 140.236 142.347 140.73 142.636C141.225 142.925 141.594 143.289 141.836 143.728V142.328H143.124V150H141.836V148.572C141.584 149.02 141.206 149.393 140.702 149.692C140.208 149.981 139.629 150.126 138.966 150.126C138.285 150.126 137.669 149.958 137.118 149.622C136.568 149.286 136.134 148.815 135.816 148.208C135.499 147.601 135.34 146.911 135.34 146.136ZM141.836 146.15C141.836 145.571 141.72 145.067 141.486 144.638C141.253 144.209 140.936 143.882 140.534 143.658C140.142 143.425 139.708 143.308 139.232 143.308C138.756 143.308 138.322 143.42 137.93 143.644C137.538 143.868 137.226 144.195 136.992 144.624C136.759 145.053 136.642 145.557 136.642 146.136C136.642 146.724 136.759 147.237 136.992 147.676C137.226 148.105 137.538 148.437 137.93 148.67C138.322 148.894 138.756 149.006 139.232 149.006C139.708 149.006 140.142 148.894 140.534 148.67C140.936 148.437 141.253 148.105 141.486 147.676C141.72 147.237 141.836 146.729 141.836 146.15ZM149.015 142.188C149.949 142.188 150.705 142.473 151.283 143.042C151.862 143.602 152.151 144.414 152.151 145.478V150H150.891V145.66C150.891 144.895 150.7 144.311 150.317 143.91C149.935 143.499 149.412 143.294 148.749 143.294C148.077 143.294 147.541 143.504 147.139 143.924C146.747 144.344 146.551 144.955 146.551 145.758V150H145.277V142.328H146.551V143.42C146.803 143.028 147.144 142.725 147.573 142.51C148.012 142.295 148.493 142.188 149.015 142.188ZM157.396 142.202C158.059 142.202 158.638 142.347 159.132 142.636C159.636 142.925 160.01 143.289 160.252 143.728V142.328H161.54V150.168C161.54 150.868 161.391 151.489 161.092 152.03C160.794 152.581 160.364 153.01 159.804 153.318C159.254 153.626 158.61 153.78 157.872 153.78C156.864 153.78 156.024 153.542 155.352 153.066C154.68 152.59 154.284 151.941 154.162 151.12H155.422C155.562 151.587 155.852 151.96 156.29 152.24C156.729 152.529 157.256 152.674 157.872 152.674C158.572 152.674 159.142 152.455 159.58 152.016C160.028 151.577 160.252 150.961 160.252 150.168V148.558C160 149.006 159.627 149.379 159.132 149.678C158.638 149.977 158.059 150.126 157.396 150.126C156.715 150.126 156.094 149.958 155.534 149.622C154.984 149.286 154.55 148.815 154.232 148.208C153.915 147.601 153.756 146.911 153.756 146.136C153.756 145.352 153.915 144.666 154.232 144.078C154.55 143.481 154.984 143.019 155.534 142.692C156.094 142.365 156.715 142.202 157.396 142.202ZM160.252 146.15C160.252 145.571 160.136 145.067 159.902 144.638C159.669 144.209 159.352 143.882 158.95 143.658C158.558 143.425 158.124 143.308 157.648 143.308C157.172 143.308 156.738 143.42 156.346 143.644C155.954 143.868 155.642 144.195 155.408 144.624C155.175 145.053 155.058 145.557 155.058 146.136C155.058 146.724 155.175 147.237 155.408 147.676C155.642 148.105 155.954 148.437 156.346 148.67C156.738 148.894 157.172 149.006 157.648 149.006C158.124 149.006 158.558 148.894 158.95 148.67C159.352 148.437 159.669 148.105 159.902 147.676C160.136 147.237 160.252 146.729 160.252 146.15ZM170.693 145.87C170.693 146.113 170.679 146.369 170.651 146.64H164.519C164.566 147.396 164.823 147.989 165.289 148.418C165.765 148.838 166.339 149.048 167.011 149.048C167.562 149.048 168.019 148.922 168.383 148.67C168.757 148.409 169.018 148.063 169.167 147.634H170.539C170.334 148.371 169.923 148.973 169.307 149.44C168.691 149.897 167.926 150.126 167.011 150.126C166.283 150.126 165.63 149.963 165.051 149.636C164.482 149.309 164.034 148.847 163.707 148.25C163.381 147.643 163.217 146.943 163.217 146.15C163.217 145.357 163.376 144.661 163.693 144.064C164.011 143.467 164.454 143.009 165.023 142.692C165.602 142.365 166.265 142.202 167.011 142.202C167.739 142.202 168.383 142.361 168.943 142.678C169.503 142.995 169.933 143.434 170.231 143.994C170.539 144.545 170.693 145.17 170.693 145.87ZM169.377 145.604C169.377 145.119 169.27 144.703 169.055 144.358C168.841 144.003 168.547 143.737 168.173 143.56C167.809 143.373 167.403 143.28 166.955 143.28C166.311 143.28 165.761 143.485 165.303 143.896C164.855 144.307 164.599 144.876 164.533 145.604H169.377ZM177.381 143.742C177.633 143.303 178.007 142.939 178.501 142.65C179.005 142.351 179.589 142.202 180.251 142.202C180.933 142.202 181.549 142.365 182.099 142.692C182.659 143.019 183.098 143.481 183.415 144.078C183.733 144.666 183.891 145.352 183.891 146.136C183.891 146.911 183.733 147.601 183.415 148.208C183.098 148.815 182.659 149.286 182.099 149.622C181.549 149.958 180.933 150.126 180.251 150.126C179.598 150.126 179.019 149.981 178.515 149.692C178.021 149.393 177.643 149.025 177.381 148.586V153.64H176.107V142.328H177.381V143.742ZM182.589 146.136C182.589 145.557 182.473 145.053 182.239 144.624C182.006 144.195 181.689 143.868 181.287 143.644C180.895 143.42 180.461 143.308 179.985 143.308C179.519 143.308 179.085 143.425 178.683 143.658C178.291 143.882 177.974 144.213 177.731 144.652C177.498 145.081 177.381 145.581 177.381 146.15C177.381 146.729 177.498 147.237 177.731 147.676C177.974 148.105 178.291 148.437 178.683 148.67C179.085 148.894 179.519 149.006 179.985 149.006C180.461 149.006 180.895 148.894 181.287 148.67C181.689 148.437 182.006 148.105 182.239 147.676C182.473 147.237 182.589 146.724 182.589 146.136ZM186.842 143.574C187.066 143.135 187.384 142.795 187.794 142.552C188.214 142.309 188.723 142.188 189.32 142.188V143.504H188.984C187.556 143.504 186.842 144.279 186.842 145.828V150H185.568V142.328H186.842V143.574ZM194.137 150.126C193.418 150.126 192.765 149.963 192.177 149.636C191.598 149.309 191.141 148.847 190.805 148.25C190.478 147.643 190.315 146.943 190.315 146.15C190.315 145.366 190.483 144.675 190.819 144.078C191.164 143.471 191.631 143.009 192.219 142.692C192.807 142.365 193.465 142.202 194.193 142.202C194.921 142.202 195.579 142.365 196.167 142.692C196.755 143.009 197.217 143.467 197.553 144.064C197.898 144.661 198.071 145.357 198.071 146.15C198.071 146.943 197.894 147.643 197.539 148.25C197.194 148.847 196.722 149.309 196.125 149.636C195.528 149.963 194.865 150.126 194.137 150.126ZM194.137 149.006C194.594 149.006 195.024 148.899 195.425 148.684C195.826 148.469 196.148 148.147 196.391 147.718C196.643 147.289 196.769 146.766 196.769 146.15C196.769 145.534 196.648 145.011 196.405 144.582C196.162 144.153 195.845 143.835 195.453 143.63C195.061 143.415 194.636 143.308 194.179 143.308C193.712 143.308 193.283 143.415 192.891 143.63C192.508 143.835 192.2 144.153 191.967 144.582C191.734 145.011 191.617 145.534 191.617 146.15C191.617 146.775 191.729 147.303 191.953 147.732C192.186 148.161 192.494 148.483 192.877 148.698C193.26 148.903 193.68 149.006 194.137 149.006ZM202.868 143.378H201.258V150H199.984V143.378H198.99V142.328H199.984V141.782C199.984 140.923 200.203 140.298 200.642 139.906C201.09 139.505 201.804 139.304 202.784 139.304V140.368C202.224 140.368 201.827 140.48 201.594 140.704C201.37 140.919 201.258 141.278 201.258 141.782V142.328H202.868V143.378ZM211.353 145.87C211.353 146.113 211.339 146.369 211.311 146.64H205.179C205.226 147.396 205.483 147.989 205.949 148.418C206.425 148.838 206.999 149.048 207.671 149.048C208.222 149.048 208.679 148.922 209.043 148.67C209.417 148.409 209.678 148.063 209.827 147.634H211.199C210.994 148.371 210.583 148.973 209.967 149.44C209.351 149.897 208.586 150.126 207.671 150.126C206.943 150.126 206.29 149.963 205.711 149.636C205.142 149.309 204.694 148.847 204.367 148.25C204.041 147.643 203.877 146.943 203.877 146.15C203.877 145.357 204.036 144.661 204.353 144.064C204.671 143.467 205.114 143.009 205.683 142.692C206.262 142.365 206.925 142.202 207.671 142.202C208.399 142.202 209.043 142.361 209.603 142.678C210.163 142.995 210.593 143.434 210.891 143.994C211.199 144.545 211.353 145.17 211.353 145.87ZM210.037 145.604C210.037 145.119 209.93 144.703 209.715 144.358C209.501 144.003 209.207 143.737 208.833 143.56C208.469 143.373 208.063 143.28 207.615 143.28C206.971 143.28 206.421 143.485 205.963 143.896C205.515 144.307 205.259 144.876 205.193 145.604H210.037ZM215.751 150.126C215.163 150.126 214.636 150.028 214.169 149.832C213.702 149.627 213.334 149.347 213.063 148.992C212.792 148.628 212.643 148.213 212.615 147.746H213.931C213.968 148.129 214.146 148.441 214.463 148.684C214.79 148.927 215.214 149.048 215.737 149.048C216.222 149.048 216.605 148.941 216.885 148.726C217.165 148.511 217.305 148.241 217.305 147.914C217.305 147.578 217.156 147.331 216.857 147.172C216.558 147.004 216.096 146.841 215.471 146.682C214.902 146.533 214.435 146.383 214.071 146.234C213.716 146.075 213.408 145.847 213.147 145.548C212.895 145.24 212.769 144.839 212.769 144.344C212.769 143.952 212.886 143.593 213.119 143.266C213.352 142.939 213.684 142.683 214.113 142.496C214.542 142.3 215.032 142.202 215.583 142.202C216.432 142.202 217.118 142.417 217.641 142.846C218.164 143.275 218.444 143.863 218.481 144.61H217.207C217.179 144.209 217.016 143.887 216.717 143.644C216.428 143.401 216.036 143.28 215.541 143.28C215.084 143.28 214.72 143.378 214.449 143.574C214.178 143.77 214.043 144.027 214.043 144.344C214.043 144.596 214.122 144.806 214.281 144.974C214.449 145.133 214.654 145.263 214.897 145.366C215.149 145.459 215.494 145.567 215.933 145.688C216.484 145.837 216.932 145.987 217.277 146.136C217.622 146.276 217.916 146.491 218.159 146.78C218.411 147.069 218.542 147.447 218.551 147.914C218.551 148.334 218.434 148.712 218.201 149.048C217.968 149.384 217.636 149.65 217.207 149.846C216.787 150.033 216.302 150.126 215.751 150.126ZM223.065 150.126C222.477 150.126 221.95 150.028 221.483 149.832C221.017 149.627 220.648 149.347 220.377 148.992C220.107 148.628 219.957 148.213 219.929 147.746H221.245C221.283 148.129 221.46 148.441 221.777 148.684C222.104 148.927 222.529 149.048 223.051 149.048C223.537 149.048 223.919 148.941 224.199 148.726C224.479 148.511 224.619 148.241 224.619 147.914C224.619 147.578 224.47 147.331 224.171 147.172C223.873 147.004 223.411 146.841 222.785 146.682C222.216 146.533 221.749 146.383 221.385 146.234C221.031 146.075 220.723 145.847 220.461 145.548C220.209 145.24 220.083 144.839 220.083 144.344C220.083 143.952 220.2 143.593 220.433 143.266C220.667 142.939 220.998 142.683 221.427 142.496C221.857 142.3 222.347 142.202 222.897 142.202C223.747 142.202 224.433 142.417 224.955 142.846C225.478 143.275 225.758 143.863 225.795 144.61H224.521C224.493 144.209 224.33 143.887 224.031 143.644C223.742 143.401 223.35 143.28 222.855 143.28C222.398 143.28 222.034 143.378 221.763 143.574C221.493 143.77 221.357 144.027 221.357 144.344C221.357 144.596 221.437 144.806 221.595 144.974C221.763 145.133 221.969 145.263 222.211 145.366C222.463 145.459 222.809 145.567 223.247 145.688C223.798 145.837 224.246 145.987 224.591 146.136C224.937 146.276 225.231 146.491 225.473 146.78C225.725 147.069 225.856 147.447 225.865 147.914C225.865 148.334 225.749 148.712 225.515 149.048C225.282 149.384 224.951 149.65 224.521 149.846C224.101 150.033 223.616 150.126 223.065 150.126ZM228.322 141.082C228.079 141.082 227.874 140.998 227.706 140.83C227.538 140.662 227.454 140.457 227.454 140.214C227.454 139.971 227.538 139.766 227.706 139.598C227.874 139.43 228.079 139.346 228.322 139.346C228.555 139.346 228.751 139.43 228.91 139.598C229.078 139.766 229.162 139.971 229.162 140.214C229.162 140.457 229.078 140.662 228.91 140.83C228.751 140.998 228.555 141.082 228.322 141.082ZM228.938 142.328V150H227.664V142.328H228.938ZM234.455 150.126C233.737 150.126 233.083 149.963 232.495 149.636C231.917 149.309 231.459 148.847 231.123 148.25C230.797 147.643 230.633 146.943 230.633 146.15C230.633 145.366 230.801 144.675 231.137 144.078C231.483 143.471 231.949 143.009 232.537 142.692C233.125 142.365 233.783 142.202 234.511 142.202C235.239 142.202 235.897 142.365 236.485 142.692C237.073 143.009 237.535 143.467 237.871 144.064C238.217 144.661 238.389 145.357 238.389 146.15C238.389 146.943 238.212 147.643 237.857 148.25C237.512 148.847 237.041 149.309 236.443 149.636C235.846 149.963 235.183 150.126 234.455 150.126ZM234.455 149.006C234.913 149.006 235.342 148.899 235.743 148.684C236.145 148.469 236.467 148.147 236.709 147.718C236.961 147.289 237.087 146.766 237.087 146.15C237.087 145.534 236.966 145.011 236.723 144.582C236.481 144.153 236.163 143.835 235.771 143.63C235.379 143.415 234.955 143.308 234.497 143.308C234.031 143.308 233.601 143.415 233.209 143.63C232.827 143.835 232.519 144.153 232.285 144.582C232.052 145.011 231.935 145.534 231.935 146.15C231.935 146.775 232.047 147.303 232.271 147.732C232.505 148.161 232.813 148.483 233.195 148.698C233.578 148.903 233.998 149.006 234.455 149.006ZM243.802 142.188C244.736 142.188 245.492 142.473 246.07 143.042C246.649 143.602 246.938 144.414 246.938 145.478V150H245.678V145.66C245.678 144.895 245.487 144.311 245.104 143.91C244.722 143.499 244.199 143.294 243.536 143.294C242.864 143.294 242.328 143.504 241.926 143.924C241.534 144.344 241.338 144.955 241.338 145.758V150H240.064V142.328H241.338V143.42C241.59 143.028 241.931 142.725 242.36 142.51C242.799 142.295 243.28 142.188 243.802 142.188ZM248.543 146.136C248.543 145.352 248.702 144.666 249.019 144.078C249.337 143.481 249.771 143.019 250.321 142.692C250.881 142.365 251.502 142.202 252.183 142.202C252.855 142.202 253.439 142.347 253.933 142.636C254.428 142.925 254.797 143.289 255.039 143.728V142.328H256.327V150H255.039V148.572C254.787 149.02 254.409 149.393 253.905 149.692C253.411 149.981 252.832 150.126 252.169 150.126C251.488 150.126 250.872 149.958 250.321 149.622C249.771 149.286 249.337 148.815 249.019 148.208C248.702 147.601 248.543 146.911 248.543 146.136ZM255.039 146.15C255.039 145.571 254.923 145.067 254.689 144.638C254.456 144.209 254.139 143.882 253.737 143.658C253.345 143.425 252.911 143.308 252.435 143.308C251.959 143.308 251.525 143.42 251.133 143.644C250.741 143.868 250.429 144.195 250.195 144.624C249.962 145.053 249.845 145.557 249.845 146.136C249.845 146.724 249.962 147.237 250.195 147.676C250.429 148.105 250.741 148.437 251.133 148.67C251.525 148.894 251.959 149.006 252.435 149.006C252.911 149.006 253.345 148.894 253.737 148.67C254.139 148.437 254.456 148.105 254.689 147.676C254.923 147.237 255.039 146.729 255.039 146.15ZM259.754 139.64V150H258.48V139.64H259.754ZM269.396 142.188C270.329 142.188 271.085 142.473 271.664 143.042C272.243 143.602 272.532 144.414 272.532 145.478V150H271.272V145.66C271.272 144.895 271.081 144.311 270.698 143.91C270.315 143.499 269.793 143.294 269.13 143.294C268.458 143.294 267.921 143.504 267.52 143.924C267.128 144.344 266.932 144.955 266.932 145.758V150H265.658V142.328H266.932V143.42C267.184 143.028 267.525 142.725 267.954 142.51C268.393 142.295 268.873 142.188 269.396 142.188ZM281.613 145.87C281.613 146.113 281.599 146.369 281.571 146.64H275.439C275.486 147.396 275.742 147.989 276.209 148.418C276.685 148.838 277.259 149.048 277.931 149.048C278.482 149.048 278.939 148.922 279.303 148.67C279.676 148.409 279.938 148.063 280.087 147.634H281.459C281.254 148.371 280.843 148.973 280.227 149.44C279.611 149.897 278.846 150.126 277.931 150.126C277.203 150.126 276.55 149.963 275.971 149.636C275.402 149.309 274.954 148.847 274.627 148.25C274.3 147.643 274.137 146.943 274.137 146.15C274.137 145.357 274.296 144.661 274.613 144.064C274.93 143.467 275.374 143.009 275.943 142.692C276.522 142.365 277.184 142.202 277.931 142.202C278.659 142.202 279.303 142.361 279.863 142.678C280.423 142.995 280.852 143.434 281.151 143.994C281.459 144.545 281.613 145.17 281.613 145.87ZM280.297 145.604C280.297 145.119 280.19 144.703 279.975 144.358C279.76 144.003 279.466 143.737 279.093 143.56C278.729 143.373 278.323 143.28 277.875 143.28C277.231 143.28 276.68 143.485 276.223 143.896C275.775 144.307 275.518 144.876 275.453 145.604H280.297ZM290.295 145.87C290.295 146.113 290.281 146.369 290.253 146.64H284.121C284.167 147.396 284.424 147.989 284.891 148.418C285.367 148.838 285.941 149.048 286.613 149.048C287.163 149.048 287.621 148.922 287.985 148.67C288.358 148.409 288.619 148.063 288.769 147.634H290.141C289.935 148.371 289.525 148.973 288.909 149.44C288.293 149.897 287.527 150.126 286.613 150.126C285.885 150.126 285.231 149.963 284.653 149.636C284.083 149.309 283.635 148.847 283.309 148.25C282.982 147.643 282.819 146.943 282.819 146.15C282.819 145.357 282.977 144.661 283.295 144.064C283.612 143.467 284.055 143.009 284.625 142.692C285.203 142.365 285.866 142.202 286.613 142.202C287.341 142.202 287.985 142.361 288.545 142.678C289.105 142.995 289.534 143.434 289.833 143.994C290.141 144.545 290.295 145.17 290.295 145.87ZM288.979 145.604C288.979 145.119 288.871 144.703 288.657 144.358C288.442 144.003 288.148 143.737 287.775 143.56C287.411 143.373 287.005 143.28 286.557 143.28C285.913 143.28 285.362 143.485 284.905 143.896C284.457 144.307 284.2 144.876 284.135 145.604H288.979ZM291.5 146.136C291.5 145.352 291.659 144.666 291.976 144.078C292.294 143.481 292.728 143.019 293.278 142.692C293.838 142.365 294.464 142.202 295.154 142.202C295.752 142.202 296.307 142.342 296.82 142.622C297.334 142.893 297.726 143.252 297.996 143.7V139.64H299.284V150H297.996V148.558C297.744 149.015 297.371 149.393 296.876 149.692C296.382 149.981 295.803 150.126 295.14 150.126C294.459 150.126 293.838 149.958 293.278 149.622C292.728 149.286 292.294 148.815 291.976 148.208C291.659 147.601 291.5 146.911 291.5 146.136ZM297.996 146.15C297.996 145.571 297.88 145.067 297.646 144.638C297.413 144.209 297.096 143.882 296.694 143.658C296.302 143.425 295.868 143.308 295.392 143.308C294.916 143.308 294.482 143.42 294.09 143.644C293.698 143.868 293.386 144.195 293.152 144.624C292.919 145.053 292.802 145.557 292.802 146.136C292.802 146.724 292.919 147.237 293.152 147.676C293.386 148.105 293.698 148.437 294.09 148.67C294.482 148.894 294.916 149.006 295.392 149.006C295.868 149.006 296.302 148.894 296.694 148.67C297.096 148.437 297.413 148.105 297.646 147.676C297.88 147.237 297.996 146.729 297.996 146.15ZM304.153 150.126C303.565 150.126 303.038 150.028 302.571 149.832C302.105 149.627 301.736 149.347 301.465 148.992C301.195 148.628 301.045 148.213 301.017 147.746H302.333C302.371 148.129 302.548 148.441 302.865 148.684C303.192 148.927 303.617 149.048 304.139 149.048C304.625 149.048 305.007 148.941 305.287 148.726C305.567 148.511 305.707 148.241 305.707 147.914C305.707 147.578 305.558 147.331 305.259 147.172C304.961 147.004 304.499 146.841 303.873 146.682C303.304 146.533 302.837 146.383 302.473 146.234C302.119 146.075 301.811 145.847 301.549 145.548C301.297 145.24 301.171 144.839 301.171 144.344C301.171 143.952 301.288 143.593 301.521 143.266C301.755 142.939 302.086 142.683 302.515 142.496C302.945 142.3 303.435 142.202 303.985 142.202C304.835 142.202 305.521 142.417 306.043 142.846C306.566 143.275 306.846 143.863 306.883 144.61H305.609C305.581 144.209 305.418 143.887 305.119 143.644C304.83 143.401 304.438 143.28 303.943 143.28C303.486 143.28 303.122 143.378 302.851 143.574C302.581 143.77 302.445 144.027 302.445 144.344C302.445 144.596 302.525 144.806 302.683 144.974C302.851 145.133 303.057 145.263 303.299 145.366C303.551 145.459 303.897 145.567 304.335 145.688C304.886 145.837 305.334 145.987 305.679 146.136C306.025 146.276 306.319 146.491 306.561 146.78C306.813 147.069 306.944 147.447 306.953 147.914C306.953 148.334 306.837 148.712 306.603 149.048C306.37 149.384 306.039 149.65 305.609 149.846C305.189 150.033 304.704 150.126 304.153 150.126ZM309.158 150.084C308.915 150.084 308.71 150 308.542 149.832C308.374 149.664 308.29 149.459 308.29 149.216C308.29 148.973 308.374 148.768 308.542 148.6C308.71 148.432 308.915 148.348 309.158 148.348C309.391 148.348 309.587 148.432 309.746 148.6C309.914 148.768 309.998 148.973 309.998 149.216C309.998 149.459 309.914 149.664 309.746 149.832C309.587 150 309.391 150.084 309.158 150.084ZM320.94 140.242V141.278H316.698V144.568H320.142V145.604H316.698V150H315.424V140.242H320.94ZM323.752 143.574C323.976 143.135 324.294 142.795 324.704 142.552C325.124 142.309 325.633 142.188 326.23 142.188V143.504H325.894C324.466 143.504 323.752 144.279 323.752 145.828V150H322.478V142.328H323.752V143.574ZM331.047 150.126C330.328 150.126 329.675 149.963 329.087 149.636C328.508 149.309 328.051 148.847 327.715 148.25C327.388 147.643 327.225 146.943 327.225 146.15C327.225 145.366 327.393 144.675 327.729 144.078C328.074 143.471 328.541 143.009 329.129 142.692C329.717 142.365 330.375 142.202 331.103 142.202C331.831 142.202 332.489 142.365 333.077 142.692C333.665 143.009 334.127 143.467 334.463 144.064C334.808 144.661 334.981 145.357 334.981 146.15C334.981 146.943 334.804 147.643 334.449 148.25C334.104 148.847 333.632 149.309 333.035 149.636C332.438 149.963 331.775 150.126 331.047 150.126ZM331.047 149.006C331.504 149.006 331.934 148.899 332.335 148.684C332.736 148.469 333.058 148.147 333.301 147.718C333.553 147.289 333.679 146.766 333.679 146.15C333.679 145.534 333.558 145.011 333.315 144.582C333.072 144.153 332.755 143.835 332.363 143.63C331.971 143.415 331.546 143.308 331.089 143.308C330.622 143.308 330.193 143.415 329.801 143.63C329.418 143.835 329.11 144.153 328.877 144.582C328.644 145.011 328.527 145.534 328.527 146.15C328.527 146.775 328.639 147.303 328.863 147.732C329.096 148.161 329.404 148.483 329.787 148.698C330.17 148.903 330.59 149.006 331.047 149.006ZM345.882 142.188C346.479 142.188 347.011 142.314 347.478 142.566C347.945 142.809 348.313 143.177 348.584 143.672C348.855 144.167 348.99 144.769 348.99 145.478V150H347.73V145.66C347.73 144.895 347.539 144.311 347.156 143.91C346.783 143.499 346.274 143.294 345.63 143.294C344.967 143.294 344.44 143.509 344.048 143.938C343.656 144.358 343.46 144.969 343.46 145.772V150H342.2V145.66C342.2 144.895 342.009 144.311 341.626 143.91C341.253 143.499 340.744 143.294 340.1 143.294C339.437 143.294 338.91 143.509 338.518 143.938C338.126 144.358 337.93 144.969 337.93 145.772V150H336.656V142.328H337.93V143.434C338.182 143.033 338.518 142.725 338.938 142.51C339.367 142.295 339.839 142.188 340.352 142.188C340.996 142.188 341.565 142.333 342.06 142.622C342.555 142.911 342.923 143.336 343.166 143.896C343.381 143.355 343.735 142.935 344.23 142.636C344.725 142.337 345.275 142.188 345.882 142.188Z" fill="#424242"/>
<path d="M61.886 172.188C62.4647 172.188 62.9873 172.314 63.454 172.566C63.9207 172.809 64.2847 173.177 64.546 173.672C64.8167 174.167 64.952 174.769 64.952 175.478V180H63.692V175.66C63.692 174.895 63.5007 174.311 63.118 173.91C62.7353 173.499 62.2127 173.294 61.55 173.294C60.878 173.294 60.3413 173.504 59.94 173.924C59.548 174.344 59.352 174.955 59.352 175.758V180H58.078V169.64H59.352V173.42C59.604 173.028 59.9493 172.725 60.388 172.51C60.836 172.295 61.3353 172.188 61.886 172.188ZM74.0331 175.87C74.0331 176.113 74.0191 176.369 73.9911 176.64H67.8591C67.9057 177.396 68.1624 177.989 68.6291 178.418C69.1051 178.838 69.6791 179.048 70.3511 179.048C70.9017 179.048 71.3591 178.922 71.7231 178.67C72.0964 178.409 72.3577 178.063 72.5071 177.634H73.8791C73.6737 178.371 73.2631 178.973 72.6471 179.44C72.0311 179.897 71.2657 180.126 70.3511 180.126C69.6231 180.126 68.9697 179.963 68.3911 179.636C67.8217 179.309 67.3737 178.847 67.0471 178.25C66.7204 177.643 66.5571 176.943 66.5571 176.15C66.5571 175.357 66.7157 174.661 67.0331 174.064C67.3504 173.467 67.7937 173.009 68.3631 172.692C68.9417 172.365 69.6044 172.202 70.3511 172.202C71.0791 172.202 71.7231 172.361 72.2831 172.678C72.8431 172.995 73.2724 173.434 73.5711 173.994C73.8791 174.545 74.0331 175.17 74.0331 175.87ZM72.7171 175.604C72.7171 175.119 72.6097 174.703 72.3951 174.358C72.1804 174.003 71.8864 173.737 71.5131 173.56C71.1491 173.373 70.7431 173.28 70.2951 173.28C69.6511 173.28 69.1004 173.485 68.6431 173.896C68.1951 174.307 67.9384 174.876 67.8731 175.604H72.7171ZM75.2387 176.136C75.2387 175.352 75.3974 174.666 75.7147 174.078C76.0321 173.481 76.4661 173.019 77.0167 172.692C77.5767 172.365 78.1974 172.202 78.8787 172.202C79.5507 172.202 80.1341 172.347 80.6287 172.636C81.1234 172.925 81.4921 173.289 81.7347 173.728V172.328H83.0227V180H81.7347V178.572C81.4827 179.02 81.1047 179.393 80.6007 179.692C80.1061 179.981 79.5274 180.126 78.8647 180.126C78.1834 180.126 77.5674 179.958 77.0167 179.622C76.4661 179.286 76.0321 178.815 75.7147 178.208C75.3974 177.601 75.2387 176.911 75.2387 176.136ZM81.7347 176.15C81.7347 175.571 81.6181 175.067 81.3847 174.638C81.1514 174.209 80.8341 173.882 80.4327 173.658C80.0407 173.425 79.6067 173.308 79.1307 173.308C78.6547 173.308 78.2207 173.42 77.8287 173.644C77.4367 173.868 77.1241 174.195 76.8907 174.624C76.6574 175.053 76.5407 175.557 76.5407 176.136C76.5407 176.724 76.6574 177.237 76.8907 177.676C77.1241 178.105 77.4367 178.437 77.8287 178.67C78.2207 178.894 78.6547 179.006 79.1307 179.006C79.6067 179.006 80.0407 178.894 80.4327 178.67C80.8341 178.437 81.1514 178.105 81.3847 177.676C81.6181 177.237 81.7347 176.729 81.7347 176.15ZM84.6997 176.136C84.6997 175.352 84.8583 174.666 85.1757 174.078C85.493 173.481 85.927 173.019 86.4777 172.692C87.0377 172.365 87.663 172.202 88.3537 172.202C88.951 172.202 89.5063 172.342 90.0197 172.622C90.533 172.893 90.925 173.252 91.1957 173.7V169.64H92.4837V180H91.1957V178.558C90.9437 179.015 90.5703 179.393 90.0757 179.692C89.581 179.981 89.0023 180.126 88.3397 180.126C87.6583 180.126 87.0377 179.958 86.4777 179.622C85.927 179.286 85.493 178.815 85.1757 178.208C84.8583 177.601 84.6997 176.911 84.6997 176.136ZM91.1957 176.15C91.1957 175.571 91.079 175.067 90.8457 174.638C90.6123 174.209 90.295 173.882 89.8937 173.658C89.5017 173.425 89.0677 173.308 88.5917 173.308C88.1157 173.308 87.6817 173.42 87.2897 173.644C86.8977 173.868 86.585 174.195 86.3517 174.624C86.1183 175.053 86.0017 175.557 86.0017 176.136C86.0017 176.724 86.1183 177.237 86.3517 177.676C86.585 178.105 86.8977 178.437 87.2897 178.67C87.6817 178.894 88.1157 179.006 88.5917 179.006C89.0677 179.006 89.5017 178.894 89.8937 178.67C90.295 178.437 90.6123 178.105 90.8457 177.676C91.079 177.237 91.1957 176.729 91.1957 176.15ZM95.9106 169.64V180H94.6366V169.64H95.9106ZM98.7399 171.082C98.4972 171.082 98.2919 170.998 98.1239 170.83C97.9559 170.662 97.8719 170.457 97.8719 170.214C97.8719 169.971 97.9559 169.766 98.1239 169.598C98.2919 169.43 98.4972 169.346 98.7399 169.346C98.9732 169.346 99.1692 169.43 99.3279 169.598C99.4959 169.766 99.5799 169.971 99.5799 170.214C99.5799 170.457 99.4959 170.662 99.3279 170.83C99.1692 170.998 98.9732 171.082 98.7399 171.082ZM99.3559 172.328V180H98.0819V172.328H99.3559ZM105.265 172.188C106.199 172.188 106.955 172.473 107.533 173.042C108.112 173.602 108.401 174.414 108.401 175.478V180H107.141V175.66C107.141 174.895 106.95 174.311 106.567 173.91C106.185 173.499 105.662 173.294 104.999 173.294C104.327 173.294 103.791 173.504 103.389 173.924C102.997 174.344 102.801 174.955 102.801 175.758V180H101.527V172.328H102.801V173.42C103.053 173.028 103.394 172.725 103.823 172.51C104.262 172.295 104.743 172.188 105.265 172.188ZM117.482 175.87C117.482 176.113 117.468 176.369 117.44 176.64H111.308C111.355 177.396 111.612 177.989 112.078 178.418C112.554 178.838 113.128 179.048 113.8 179.048C114.351 179.048 114.808 178.922 115.172 178.67C115.546 178.409 115.807 178.063 115.956 177.634H117.328C117.123 178.371 116.712 178.973 116.096 179.44C115.48 179.897 114.715 180.126 113.8 180.126C113.072 180.126 112.419 179.963 111.84 179.636C111.271 179.309 110.823 178.847 110.496 178.25C110.17 177.643 110.006 176.943 110.006 176.15C110.006 175.357 110.165 174.661 110.482 174.064C110.8 173.467 111.243 173.009 111.812 172.692C112.391 172.365 113.054 172.202 113.8 172.202C114.528 172.202 115.172 172.361 115.732 172.678C116.292 172.995 116.722 173.434 117.02 173.994C117.328 174.545 117.482 175.17 117.482 175.87ZM116.166 175.604C116.166 175.119 116.059 174.703 115.844 174.358C115.63 174.003 115.336 173.737 114.962 173.56C114.598 173.373 114.192 173.28 113.744 173.28C113.1 173.28 112.55 173.485 112.092 173.896C111.644 174.307 111.388 174.876 111.322 175.604H116.166ZM121.88 180.126C121.292 180.126 120.765 180.028 120.298 179.832C119.831 179.627 119.463 179.347 119.192 178.992C118.921 178.628 118.772 178.213 118.744 177.746H120.06C120.097 178.129 120.275 178.441 120.592 178.684C120.919 178.927 121.343 179.048 121.866 179.048C122.351 179.048 122.734 178.941 123.014 178.726C123.294 178.511 123.434 178.241 123.434 177.914C123.434 177.578 123.285 177.331 122.986 177.172C122.687 177.004 122.225 176.841 121.6 176.682C121.031 176.533 120.564 176.383 120.2 176.234C119.845 176.075 119.537 175.847 119.276 175.548C119.024 175.24 118.898 174.839 118.898 174.344C118.898 173.952 119.015 173.593 119.248 173.266C119.481 172.939 119.813 172.683 120.242 172.496C120.671 172.3 121.161 172.202 121.712 172.202C122.561 172.202 123.247 172.417 123.77 172.846C124.293 173.275 124.573 173.863 124.61 174.61H123.336C123.308 174.209 123.145 173.887 122.846 173.644C122.557 173.401 122.165 173.28 121.67 173.28C121.213 173.28 120.849 173.378 120.578 173.574C120.307 173.77 120.172 174.027 120.172 174.344C120.172 174.596 120.251 174.806 120.41 174.974C120.578 175.133 120.783 175.263 121.026 175.366C121.278 175.459 121.623 175.567 122.062 175.688C122.613 175.837 123.061 175.987 123.406 176.136C123.751 176.276 124.045 176.491 124.288 176.78C124.54 177.069 124.671 177.447 124.68 177.914C124.68 178.334 124.563 178.712 124.33 179.048C124.097 179.384 123.765 179.65 123.336 179.846C122.916 180.033 122.431 180.126 121.88 180.126ZM131.765 173.378V177.9C131.765 178.273 131.844 178.539 132.003 178.698C132.161 178.847 132.437 178.922 132.829 178.922H133.767V180H132.619C131.909 180 131.377 179.837 131.023 179.51C130.668 179.183 130.491 178.647 130.491 177.9V173.378H129.497V172.328H130.491V170.396H131.765V172.328H133.767V173.378H131.765ZM138.656 180.126C137.938 180.126 137.284 179.963 136.696 179.636C136.118 179.309 135.66 178.847 135.324 178.25C134.998 177.643 134.834 176.943 134.834 176.15C134.834 175.366 135.002 174.675 135.338 174.078C135.684 173.471 136.15 173.009 136.738 172.692C137.326 172.365 137.984 172.202 138.712 172.202C139.44 172.202 140.098 172.365 140.686 172.692C141.274 173.009 141.736 173.467 142.072 174.064C142.418 174.661 142.59 175.357 142.59 176.15C142.59 176.943 142.413 177.643 142.058 178.25C141.713 178.847 141.242 179.309 140.644 179.636C140.047 179.963 139.384 180.126 138.656 180.126ZM138.656 179.006C139.114 179.006 139.543 178.899 139.944 178.684C140.346 178.469 140.668 178.147 140.91 177.718C141.162 177.289 141.288 176.766 141.288 176.15C141.288 175.534 141.167 175.011 140.924 174.582C140.682 174.153 140.364 173.835 139.972 173.63C139.58 173.415 139.156 173.308 138.698 173.308C138.232 173.308 137.802 173.415 137.41 173.63C137.028 173.835 136.72 174.153 136.486 174.582C136.253 175.011 136.136 175.534 136.136 176.15C136.136 176.775 136.248 177.303 136.472 177.732C136.706 178.161 137.014 178.483 137.396 178.698C137.779 178.903 138.199 179.006 138.656 179.006ZM154.998 175.87C154.998 176.113 154.984 176.369 154.956 176.64H148.824C148.871 177.396 149.127 177.989 149.594 178.418C150.07 178.838 150.644 179.048 151.316 179.048C151.867 179.048 152.324 178.922 152.688 178.67C153.061 178.409 153.323 178.063 153.472 177.634H154.844C154.639 178.371 154.228 178.973 153.612 179.44C152.996 179.897 152.231 180.126 151.316 180.126C150.588 180.126 149.935 179.963 149.356 179.636C148.787 179.309 148.339 178.847 148.012 178.25C147.685 177.643 147.522 176.943 147.522 176.15C147.522 175.357 147.681 174.661 147.998 174.064C148.315 173.467 148.759 173.009 149.328 172.692C149.907 172.365 150.569 172.202 151.316 172.202C152.044 172.202 152.688 172.361 153.248 172.678C153.808 172.995 154.237 173.434 154.536 173.994C154.844 174.545 154.998 175.17 154.998 175.87ZM153.682 175.604C153.682 175.119 153.575 174.703 153.36 174.358C153.145 174.003 152.851 173.737 152.478 173.56C152.114 173.373 151.708 173.28 151.26 173.28C150.616 173.28 150.065 173.485 149.608 173.896C149.16 174.307 148.903 174.876 148.838 175.604H153.682ZM160.418 172.188C161.351 172.188 162.107 172.473 162.686 173.042C163.264 173.602 163.554 174.414 163.554 175.478V180H162.294V175.66C162.294 174.895 162.102 174.311 161.72 173.91C161.337 173.499 160.814 173.294 160.152 173.294C159.48 173.294 158.943 173.504 158.542 173.924C158.15 174.344 157.954 174.955 157.954 175.758V180H156.68V172.328H157.954V173.42C158.206 173.028 158.546 172.725 158.976 172.51C159.414 172.295 159.895 172.188 160.418 172.188ZM167.189 173.378V177.9C167.189 178.273 167.268 178.539 167.427 178.698C167.585 178.847 167.861 178.922 168.253 178.922H169.191V180H168.043C167.333 180 166.801 179.837 166.447 179.51C166.092 179.183 165.915 178.647 165.915 177.9V173.378H164.921V172.328H165.915V170.396H167.189V172.328H169.191V173.378H167.189ZM171.392 171.082C171.15 171.082 170.944 170.998 170.776 170.83C170.608 170.662 170.524 170.457 170.524 170.214C170.524 169.971 170.608 169.766 170.776 169.598C170.944 169.43 171.15 169.346 171.392 169.346C171.626 169.346 171.822 169.43 171.98 169.598C172.148 169.766 172.232 169.971 172.232 170.214C172.232 170.457 172.148 170.662 171.98 170.83C171.822 170.998 171.626 171.082 171.392 171.082ZM172.008 172.328V180H170.734V172.328H172.008ZM175.454 173.574C175.678 173.135 175.995 172.795 176.406 172.552C176.826 172.309 177.334 172.188 177.932 172.188V173.504H177.596C176.168 173.504 175.454 174.279 175.454 175.828V180H174.18V172.328H175.454V173.574ZM186.402 175.87C186.402 176.113 186.388 176.369 186.36 176.64H180.228C180.275 177.396 180.532 177.989 180.998 178.418C181.474 178.838 182.048 179.048 182.72 179.048C183.271 179.048 183.728 178.922 184.092 178.67C184.466 178.409 184.727 178.063 184.876 177.634H186.248C186.043 178.371 185.632 178.973 185.016 179.44C184.4 179.897 183.635 180.126 182.72 180.126C181.992 180.126 181.339 179.963 180.76 179.636C180.191 179.309 179.743 178.847 179.416 178.25C179.09 177.643 178.926 176.943 178.926 176.15C178.926 175.357 179.085 174.661 179.402 174.064C179.72 173.467 180.163 173.009 180.732 172.692C181.311 172.365 181.974 172.202 182.72 172.202C183.448 172.202 184.092 172.361 184.652 172.678C185.212 172.995 185.642 173.434 185.94 173.994C186.248 174.545 186.402 175.17 186.402 175.87ZM185.086 175.604C185.086 175.119 184.979 174.703 184.764 174.358C184.55 174.003 184.256 173.737 183.882 173.56C183.518 173.373 183.112 173.28 182.664 173.28C182.02 173.28 181.47 173.485 181.012 173.896C180.564 174.307 180.308 174.876 180.242 175.604H185.086ZM191.34 176.136C191.34 175.352 191.499 174.666 191.816 174.078C192.134 173.481 192.568 173.019 193.118 172.692C193.678 172.365 194.299 172.202 194.98 172.202C195.652 172.202 196.236 172.347 196.73 172.636C197.225 172.925 197.594 173.289 197.836 173.728V172.328H199.124V180H197.836V178.572C197.584 179.02 197.206 179.393 196.702 179.692C196.208 179.981 195.629 180.126 194.966 180.126C194.285 180.126 193.669 179.958 193.118 179.622C192.568 179.286 192.134 178.815 191.816 178.208C191.499 177.601 191.34 176.911 191.34 176.136ZM197.836 176.15C197.836 175.571 197.72 175.067 197.486 174.638C197.253 174.209 196.936 173.882 196.534 173.658C196.142 173.425 195.708 173.308 195.232 173.308C194.756 173.308 194.322 173.42 193.93 173.644C193.538 173.868 193.226 174.195 192.992 174.624C192.759 175.053 192.642 175.557 192.642 176.136C192.642 176.724 192.759 177.237 192.992 177.676C193.226 178.105 193.538 178.437 193.93 178.67C194.322 178.894 194.756 179.006 195.232 179.006C195.708 179.006 196.142 178.894 196.534 178.67C196.936 178.437 197.253 178.105 197.486 177.676C197.72 177.237 197.836 176.729 197.836 176.15ZM202.551 173.574C202.775 173.135 203.093 172.795 203.503 172.552C203.923 172.309 204.432 172.188 205.029 172.188V173.504H204.693C203.265 173.504 202.551 174.279 202.551 175.828V180H201.277V172.328H202.551V173.574ZM208.054 173.378V177.9C208.054 178.273 208.133 178.539 208.292 178.698C208.451 178.847 208.726 178.922 209.118 178.922H210.056V180H208.908C208.199 180 207.667 179.837 207.312 179.51C206.957 179.183 206.78 178.647 206.78 177.9V173.378H205.786V172.328H206.78V170.396H208.054V172.328H210.056V173.378H208.054ZM212.257 171.082C212.015 171.082 211.809 170.998 211.641 170.83C211.473 170.662 211.389 170.457 211.389 170.214C211.389 169.971 211.473 169.766 211.641 169.598C211.809 169.43 212.015 169.346 212.257 169.346C212.491 169.346 212.687 169.43 212.845 169.598C213.013 169.766 213.097 169.971 213.097 170.214C213.097 170.457 213.013 170.662 212.845 170.83C212.687 170.998 212.491 171.082 212.257 171.082ZM212.873 172.328V180H211.599V172.328H212.873ZM214.569 176.15C214.569 175.357 214.727 174.666 215.045 174.078C215.362 173.481 215.801 173.019 216.361 172.692C216.93 172.365 217.579 172.202 218.307 172.202C219.249 172.202 220.024 172.431 220.631 172.888C221.247 173.345 221.653 173.98 221.849 174.792H220.477C220.346 174.325 220.089 173.957 219.707 173.686C219.333 173.415 218.867 173.28 218.307 173.28C217.579 173.28 216.991 173.532 216.543 174.036C216.095 174.531 215.871 175.235 215.871 176.15C215.871 177.074 216.095 177.788 216.543 178.292C216.991 178.796 217.579 179.048 218.307 179.048C218.867 179.048 219.333 178.917 219.707 178.656C220.08 178.395 220.337 178.021 220.477 177.536H221.849C221.643 178.32 221.233 178.95 220.617 179.426C220.001 179.893 219.231 180.126 218.307 180.126C217.579 180.126 216.93 179.963 216.361 179.636C215.801 179.309 215.362 178.847 215.045 178.25C214.727 177.653 214.569 176.953 214.569 176.15ZM224.823 169.64V180H223.549V169.64H224.823ZM233.994 175.87C233.994 176.113 233.98 176.369 233.952 176.64H227.82C227.867 177.396 228.123 177.989 228.59 178.418C229.066 178.838 229.64 179.048 230.312 179.048C230.863 179.048 231.32 178.922 231.684 178.67C232.057 178.409 232.319 178.063 232.468 177.634H233.84C233.635 178.371 233.224 178.973 232.608 179.44C231.992 179.897 231.227 180.126 230.312 180.126C229.584 180.126 228.931 179.963 228.352 179.636C227.783 179.309 227.335 178.847 227.008 178.25C226.681 177.643 226.518 176.943 226.518 176.15C226.518 175.357 226.677 174.661 226.994 174.064C227.311 173.467 227.755 173.009 228.324 172.692C228.903 172.365 229.565 172.202 230.312 172.202C231.04 172.202 231.684 172.361 232.244 172.678C232.804 172.995 233.233 173.434 233.532 173.994C233.84 174.545 233.994 175.17 233.994 175.87ZM232.678 175.604C232.678 175.119 232.571 174.703 232.356 174.358C232.141 174.003 231.847 173.737 231.474 173.56C231.11 173.373 230.704 173.28 230.256 173.28C229.612 173.28 229.061 173.485 228.604 173.896C228.156 174.307 227.899 174.876 227.834 175.604H232.678ZM238.392 180.126C237.804 180.126 237.276 180.028 236.81 179.832C236.343 179.627 235.974 179.347 235.704 178.992C235.433 178.628 235.284 178.213 235.256 177.746H236.572C236.609 178.129 236.786 178.441 237.104 178.684C237.43 178.927 237.855 179.048 238.378 179.048C238.863 179.048 239.246 178.941 239.526 178.726C239.806 178.511 239.946 178.241 239.946 177.914C239.946 177.578 239.796 177.331 239.498 177.172C239.199 177.004 238.737 176.841 238.112 176.682C237.542 176.533 237.076 176.383 236.712 176.234C236.357 176.075 236.049 175.847 235.788 175.548C235.536 175.24 235.41 174.839 235.41 174.344C235.41 173.952 235.526 173.593 235.76 173.266C235.993 172.939 236.324 172.683 236.754 172.496C237.183 172.3 237.673 172.202 238.224 172.202C239.073 172.202 239.759 172.417 240.282 172.846C240.804 173.275 241.084 173.863 241.122 174.61H239.848C239.82 174.209 239.656 173.887 239.358 173.644C239.068 173.401 238.676 173.28 238.182 173.28C237.724 173.28 237.36 173.378 237.09 173.574C236.819 173.77 236.684 174.027 236.684 174.344C236.684 174.596 236.763 174.806 236.922 174.974C237.09 175.133 237.295 175.263 237.538 175.366C237.79 175.459 238.135 175.567 238.574 175.688C239.124 175.837 239.572 175.987 239.918 176.136C240.263 176.276 240.557 176.491 240.8 176.78C241.052 177.069 241.182 177.447 241.192 177.914C241.192 178.334 241.075 178.712 240.842 179.048C240.608 179.384 240.277 179.65 239.848 179.846C239.428 180.033 238.942 180.126 238.392 180.126Z" fill="#424242"/>
<circle cx="212" cy="18" r="17" stroke="#9DE8EE" stroke-width="2"/>
<path d="M207.079 14.816V11.672L211.399 9.2H214.279V23.12H218.119V26H207.079V23.12H210.919V12.608L207.079 14.816Z" fill="#9DE8EE"/>
<defs>
<filter id="filter0_d_73_46" x="0" y="58" width="424" height="184" filterUnits="userSpaceOnUse" color-interpolation-filters="sRGB">
<feFlood flood-opacity="0" result="BackgroundImageFix"/>
<feColorMatrix in="SourceAlpha" type="matrix" values="0 0 0 0 0 0 0 0 0 0 0 0 0 0 0 0 0 0 127 0" result="hardAlpha"/>
<feOffset dy="4"/>
<feGaussianBlur stdDeviation="16"/>
<feComposite in2="hardAlpha" operator="out"/>
<feColorMatrix type="matrix" values="0 0 0 0 0 0 0 0 0 0 0 0 0 0 0 0 0 0 0.05 0"/>
<feBlend mode="normal" in2="BackgroundImageFix" result="effect1_dropShadow_73_46"/>
<feBlend mode="normal" in="SourceGraphic" in2="effect1_dropShadow_73_46" result="shape"/>
</filter>
</defs>
</svg>
