<svg width="424" height="242" viewBox="0 0 424 242" fill="none" xmlns="http://www.w3.org/2000/svg">
<path d="M223 56L223 34" stroke="#9DE8EE" stroke-width="3" stroke-dasharray="6 6"/>
<rect opacity="0.2" x="2" y="56" width="420" height="180" rx="20" fill="#9DE8EE"/>
<g filter="url(#filter0_d_73_47)">
<rect x="32" y="86" width="360" height="120" rx="20" fill="#CAFBFF"/>
</g>
<rect x="82" y="108" width="260" height="75" rx="37.5" fill="#9DE8EE"/>
<circle cx="223" cy="18" r="17" stroke="#9DE8EE" stroke-width="2"/>
<path d="M220.724 23.12H228.644V26H217.364V18.104L220.148 16.496H225.284V12.08H220.724V14.24H217.364V10.808L220.148 9.2H225.86L228.644 10.808V17.768L225.86 19.376H220.724V23.12Z" fill="#9DE8EE"/>
<path d="M176.68 141.15C176.14 140.11 175.39 139.33 174.43 138.81C173.47 138.27 172.36 138 171.1 138C169.72 138 168.49 138.31 167.41 138.93C166.33 139.55 165.48 140.43 164.86 141.57C164.26 142.71 163.96 144.03 163.96 145.53C163.96 147.03 164.26 148.36 164.86 149.52C165.48 150.66 166.33 151.54 167.41 152.16C168.49 152.78 169.72 153.09 171.1 153.09C172.96 153.09 174.47 152.57 175.63 151.53C176.79 150.49 177.5 149.08 177.76 147.3H169.93V144.57H181.42V147.24C181.2 148.86 180.62 150.35 179.68 151.71C178.76 153.07 177.55 154.16 176.05 154.98C174.57 155.78 172.92 156.18 171.1 156.18C169.14 156.18 167.35 155.73 165.73 154.83C164.11 153.91 162.82 152.64 161.86 151.02C160.92 149.4 160.45 147.57 160.45 145.53C160.45 143.49 160.92 141.66 161.86 140.04C162.82 138.42 164.11 137.16 165.73 136.26C167.37 135.34 169.16 134.88 171.1 134.88C173.32 134.88 175.29 135.43 177.01 136.53C178.75 137.61 180.01 139.15 180.79 141.15H176.68ZM199.943 147.33C199.943 147.95 199.903 148.51 199.823 149.01H187.193C187.293 150.33 187.783 151.39 188.663 152.19C189.543 152.99 190.623 153.39 191.903 153.39C193.743 153.39 195.043 152.62 195.803 151.08H199.493C198.993 152.6 198.083 153.85 196.763 154.83C195.463 155.79 193.843 156.27 191.903 156.27C190.323 156.27 188.903 155.92 187.643 155.22C186.403 154.5 185.423 153.5 184.703 152.22C184.003 150.92 183.653 149.42 183.653 147.72C183.653 146.02 183.993 144.53 184.673 143.25C185.373 141.95 186.343 140.95 187.583 140.25C188.843 139.55 190.283 139.2 191.903 139.2C193.463 139.2 194.853 139.54 196.073 140.22C197.293 140.9 198.243 141.86 198.923 143.1C199.603 144.32 199.943 145.73 199.943 147.33ZM196.373 146.25C196.353 144.99 195.903 143.98 195.023 143.22C194.143 142.46 193.053 142.08 191.753 142.08C190.573 142.08 189.563 142.46 188.723 143.22C187.883 143.96 187.383 144.97 187.223 146.25H196.373ZM211.649 139.2C212.949 139.2 214.109 139.47 215.129 140.01C216.169 140.55 216.979 141.35 217.559 142.41C218.139 143.47 218.429 144.75 218.429 146.25V156H215.039V146.76C215.039 145.28 214.669 144.15 213.929 143.37C213.189 142.57 212.179 142.17 210.899 142.17C209.619 142.17 208.599 142.57 207.839 143.37C207.099 144.15 206.729 145.28 206.729 146.76V156H203.309V139.47H206.729V141.36C207.289 140.68 207.999 140.15 208.859 139.77C209.739 139.39 210.669 139.2 211.649 139.2ZM237.941 147.33C237.941 147.95 237.901 148.51 237.821 149.01H225.191C225.291 150.33 225.781 151.39 226.661 152.19C227.541 152.99 228.621 153.39 229.901 153.39C231.741 153.39 233.041 152.62 233.801 151.08H237.491C236.991 152.6 236.081 153.85 234.761 154.83C233.461 155.79 231.841 156.27 229.901 156.27C228.321 156.27 226.901 155.92 225.641 155.22C224.401 154.5 223.421 153.5 222.701 152.22C222.001 150.92 221.651 149.42 221.651 147.72C221.651 146.02 221.991 144.53 222.671 143.25C223.371 141.95 224.341 140.95 225.581 140.25C226.841 139.55 228.281 139.2 229.901 139.2C231.461 139.2 232.851 139.54 234.071 140.22C235.291 140.9 236.241 141.86 236.921 143.1C237.601 144.32 237.941 145.73 237.941 147.33ZM234.371 146.25C234.351 144.99 233.901 143.98 233.021 143.22C232.141 142.46 231.051 142.08 229.751 142.08C228.571 142.08 227.561 142.46 226.721 143.22C225.881 143.96 225.381 144.97 225.221 146.25H234.371ZM244.727 141.87C245.227 141.03 245.887 140.38 246.707 139.92C247.547 139.44 248.537 139.2 249.677 139.2V142.74H248.807C247.467 142.74 246.447 143.08 245.747 143.76C245.067 144.44 244.727 145.62 244.727 147.3V156H241.307V139.47H244.727V141.87ZM251.681 147.66C251.681 146 252.021 144.53 252.701 143.25C253.401 141.97 254.341 140.98 255.521 140.28C256.721 139.56 258.041 139.2 259.481 139.2C260.781 139.2 261.911 139.46 262.871 139.98C263.851 140.48 264.631 141.11 265.211 141.87V139.47H268.661V156H265.211V153.54C264.631 154.32 263.841 154.97 262.841 155.49C261.841 156.01 260.701 156.27 259.421 156.27C258.001 156.27 256.701 155.91 255.521 155.19C254.341 154.45 253.401 153.43 252.701 152.13C252.021 150.81 251.681 149.32 251.681 147.66ZM265.211 147.72C265.211 146.58 264.971 145.59 264.491 144.75C264.031 143.91 263.421 143.27 262.661 142.83C261.901 142.39 261.081 142.17 260.201 142.17C259.321 142.17 258.501 142.39 257.741 142.83C256.981 143.25 256.361 143.88 255.881 144.72C255.421 145.54 255.191 146.52 255.191 147.66C255.191 148.8 255.421 149.8 255.881 150.66C256.361 151.52 256.981 152.18 257.741 152.64C258.521 153.08 259.341 153.3 260.201 153.3C261.081 153.3 261.901 153.08 262.661 152.64C263.421 152.2 264.031 151.56 264.491 150.72C264.971 149.86 265.211 148.86 265.211 147.72ZM277.143 142.26V151.41C277.143 152.03 277.283 152.48 277.563 152.76C277.863 153.02 278.363 153.15 279.063 153.15H281.163V156H278.463C276.923 156 275.743 155.64 274.923 154.92C274.103 154.2 273.693 153.03 273.693 151.41V142.26H271.743V139.47H273.693V135.36H277.143V139.47H281.163V142.26H277.143ZM299.465 147.33C299.465 147.95 299.425 148.51 299.345 149.01H286.715C286.815 150.33 287.305 151.39 288.185 152.19C289.065 152.99 290.145 153.39 291.425 153.39C293.265 153.39 294.565 152.62 295.325 151.08H299.015C298.515 152.6 297.605 153.85 296.285 154.83C294.985 155.79 293.365 156.27 291.425 156.27C289.845 156.27 288.425 155.92 287.165 155.22C285.925 154.5 284.945 153.5 284.225 152.22C283.525 150.92 283.175 149.42 283.175 147.72C283.175 146.02 283.515 144.53 284.195 143.25C284.895 141.95 285.865 140.95 287.105 140.25C288.365 139.55 289.805 139.2 291.425 139.2C292.985 139.2 294.375 139.54 295.595 140.22C296.815 140.9 297.765 141.86 298.445 143.1C299.125 144.32 299.465 145.73 299.465 147.33ZM295.895 146.25C295.875 144.99 295.425 143.98 294.545 143.22C293.665 142.46 292.575 142.08 291.275 142.08C290.095 142.08 289.085 142.46 288.245 143.22C287.405 143.96 286.905 144.97 286.745 146.25H295.895Z" fill="#137A83"/>
<path fill-rule="evenodd" clip-rule="evenodd" d="M148.425 144.48L147.297 141.933C147.031 141.332 146.548 140.849 145.94 140.589L143.486 139.535C143.294 139.448 143.288 139.176 143.486 139.089L145.984 137.998C146.591 137.732 147.068 137.255 147.334 136.648L148.425 134.144C148.512 133.952 148.784 133.952 148.871 134.144L149.962 136.648C150.228 137.255 150.705 137.732 151.313 137.998L153.816 139.089C154.008 139.176 154.008 139.448 153.816 139.535L151.313 140.626C150.705 140.892 150.228 141.369 149.962 141.977L148.871 144.48C148.784 144.672 148.512 144.672 148.425 144.48ZM134.223 151.761L130.467 150.144C130.17 150.014 130.17 149.592 130.467 149.462L134.291 147.795C135.214 147.393 135.951 146.655 136.354 145.732L138.021 141.909C138.151 141.611 138.573 141.611 138.703 141.909L140.37 145.732C140.772 146.655 141.51 147.393 142.433 147.795L146.256 149.462C146.554 149.592 146.554 150.014 146.256 150.144L142.433 151.811C141.51 152.214 140.772 152.951 140.37 153.874L138.696 157.704C138.566 158.001 138.145 158.001 138.015 157.704L136.292 153.806C135.883 152.883 135.14 152.152 134.216 151.749L134.223 151.761ZM128.18 134.002C125.319 134.002 123 136.321 123 139.182C123 142.043 125.319 144.363 128.18 144.363C131.041 144.363 133.361 142.043 133.361 139.182C133.361 136.321 131.041 134.002 128.18 134.002Z" fill="#137A83"/>
<defs>
<filter id="filter0_d_73_47" x="0" y="58" width="424" height="184" filterUnits="userSpaceOnUse" color-interpolation-filters="sRGB">
<feFlood flood-opacity="0" result="BackgroundImageFix"/>
<feColorMatrix in="SourceAlpha" type="matrix" values="0 0 0 0 0 0 0 0 0 0 0 0 0 0 0 0 0 0 127 0" result="hardAlpha"/>
<feOffset dy="4"/>
<feGaussianBlur stdDeviation="16"/>
<feComposite in2="hardAlpha" operator="out"/>
<feColorMatrix type="matrix" values="0 0 0 0 0 0 0 0 0 0 0 0 0 0 0 0 0 0 0.05 0"/>
<feBlend mode="normal" in2="BackgroundImageFix" result="effect1_dropShadow_73_47"/>
<feBlend mode="normal" in="SourceGraphic" in2="effect1_dropShadow_73_47" result="shape"/>
</filter>
</defs>
</svg>
