<?xml version="1.0" encoding="UTF-8"?>
<svg version="1.1" xmlns="http://www.w3.org/2000/svg" width="512" height="512">
<path d="M0 0 C1.01790619 0.00215515 2.03581238 0.0043103 3.08456421 0.00653076 C17.69363523 0.05620146 32.02575853 0.30709809 46.375 3.3125 C47.34985352 3.51117676 48.32470703 3.70985352 49.32910156 3.91455078 C97.7109774 14.03517194 141.69928269 35.9516877 177.375 70.3125 C178.3640332 71.26068604 178.3640332 71.26068604 179.37304688 72.22802734 C188.86130305 81.37247479 197.6012044 90.66984009 205.375 101.3125 C206.23306152 102.46355017 207.09113451 103.61459177 207.94921875 104.765625 C213.98736829 112.95680614 219.34595521 121.47054105 224.375 130.3125 C224.73948242 130.94430176 225.10396484 131.57610352 225.47949219 132.22705078 C247.08534998 169.97532572 256.85198095 212.74189997 256.6875 255.9375 C256.68534485 256.95540619 256.6831897 257.97331238 256.68096924 259.02206421 C256.63129854 273.63113523 256.38040191 287.96325853 253.375 302.3125 C253.07698486 303.77478027 253.07698486 303.77478027 252.77294922 305.26660156 C240.31286762 364.83232498 208.4226363 421.18616419 159.375 458.3125 C158.83617187 458.72773926 158.29734375 459.14297852 157.7421875 459.57080078 C125.87232453 484.07165115 89.31918759 500.56392134 49.9375 508.625 C49.21860596 508.77235596 48.49971191 508.91971191 47.7590332 509.0715332 C33.08339502 511.86090125 18.55831162 512.66142619 3.64770508 512.62817383 C0.70811513 512.6250221 -2.2304558 512.64854926 -5.16992188 512.67382812 C-18.54306192 512.71848737 -31.43916711 511.51301542 -44.625 509.3125 C-46.33055054 509.03031616 -46.33055054 509.03031616 -48.07055664 508.74243164 C-91.33802759 500.97044532 -132.38793216 480.98345309 -165.625 452.3125 C-166.37007813 451.67828125 -167.11515625 451.0440625 -167.8828125 450.390625 C-181.38779833 438.57948485 -194.05918743 425.82889772 -204.625 411.3125 C-205.48149066 410.16255169 -206.33826433 409.01281411 -207.1953125 407.86328125 C-213.23534209 399.67315742 -218.61867614 391.16870382 -223.625 382.3125 C-224.0271875 381.60528809 -224.429375 380.89807617 -224.84375 380.16943359 C-237.8691741 357.03404164 -246.61801461 331.86287591 -251.9375 305.875 C-252.08485596 305.15610596 -252.23221191 304.43721191 -252.3840332 303.6965332 C-255.35789088 288.05024391 -255.99800362 272.57681954 -255.9375 256.6875 C-255.93534485 255.66959381 -255.9331897 254.65168762 -255.93096924 253.60293579 C-255.88129854 238.99386477 -255.63040191 224.66174147 -252.625 210.3125 C-252.42632324 209.33764648 -252.22764648 208.36279297 -252.02294922 207.35839844 C-241.90232806 158.9765226 -219.9858123 114.98821731 -185.625 79.3125 C-184.99287598 78.65314453 -184.36075195 77.99378906 -183.70947266 77.31445312 C-174.56502521 67.82619695 -165.26765991 59.0862956 -154.625 51.3125 C-153.47394983 50.45443848 -152.32290823 49.59636549 -151.171875 48.73828125 C-142.98224019 42.70072604 -134.47961724 37.31792698 -125.625 32.3125 C-124.91778809 31.9103125 -124.21057617 31.508125 -123.48193359 31.09375 C-100.34654164 18.0683259 -75.17537591 9.31948539 -49.1875 4 C-48.46860596 3.85264404 -47.74971191 3.70528809 -47.0090332 3.5534668 C-31.36274391 0.57960912 -15.88931954 -0.06050362 0 0 Z M-65.625 40.3125 C-66.4097168 40.55307129 -67.19443359 40.79364258 -68.00292969 41.04150391 C-101.70008262 51.58457691 -131.75188952 70.15878322 -156.98535156 94.71972656 C-158.44361838 96.1363038 -159.91981656 97.53436915 -161.3984375 98.9296875 C-168.22306424 105.49596875 -173.94353006 112.76504631 -179.625 120.3125 C-180.34816406 121.26382813 -181.07132813 122.21515625 -181.81640625 123.1953125 C-207.24503384 157.3323742 -224.45459113 201.46967012 -224.86328125 244.3671875 C-224.87302979 245.21805435 -224.88277832 246.0689212 -224.89282227 246.9455719 C-225.06689294 266.08975594 -224.80823044 284.53573237 -220.625 303.3125 C-220.34414551 304.59423096 -220.34414551 304.59423096 -220.05761719 305.90185547 C-218.80417092 311.44494555 -217.30520128 316.88451322 -215.625 322.3125 C-215.26414307 323.4895752 -215.26414307 323.4895752 -214.89599609 324.69042969 C-204.35292309 358.38758262 -185.77871678 388.43938952 -161.21777344 413.67285156 C-159.8011962 415.13111838 -158.40313085 416.60731656 -157.0078125 418.0859375 C-150.44153125 424.91056424 -143.17245369 430.63103006 -135.625 436.3125 C-134.67367187 437.03566406 -133.72234375 437.75882812 -132.7421875 438.50390625 C-86.25449644 473.13249245 -26.24118908 488.03746211 31.06884766 480.06396484 C43.07883163 478.27613276 54.77413748 475.90347853 66.375 472.3125 C67.1597168 472.07192871 67.94443359 471.83135742 68.75292969 471.58349609 C102.45008262 461.04042309 132.50188952 442.46621678 157.73535156 417.90527344 C159.19361838 416.4886962 160.66981656 415.09063085 162.1484375 413.6953125 C168.97306424 407.12903125 174.69353006 399.85995369 180.375 392.3125 C181.09816406 391.36117188 181.82132812 390.40984375 182.56640625 389.4296875 C207.99503384 355.2926258 225.20459113 311.15532988 225.61328125 268.2578125 C225.62302979 267.40694565 225.63277832 266.5560788 225.64282227 265.6794281 C225.81689294 246.53524406 225.55823044 228.08926763 221.375 209.3125 C221.18776367 208.4580127 221.00052734 207.60352539 220.80761719 206.72314453 C219.55417092 201.18005445 218.05520128 195.74048678 216.375 190.3125 C216.13442871 189.5277832 215.89385742 188.74306641 215.64599609 187.93457031 C207.95526936 163.35391961 196.0189612 140.73567541 180.375 120.3125 C179.75238281 119.49652344 179.12976563 118.68054688 178.48828125 117.83984375 C173.14351222 110.99897304 167.33886574 104.61090391 161.375 98.3125 C160.4984375 97.38179688 159.621875 96.45109375 158.71875 95.4921875 C151.79704483 88.34654481 144.31876493 82.27324334 136.375 76.3125 C135.42496094 75.590625 134.47492188 74.86875 133.49609375 74.125 C77.12722241 32.11501146 1.43421097 19.55471697 -65.625 40.3125 Z " fill="#000000" transform="translate(255.625,-0.3125)"/>
<path d="M0 0 C9.9 0 19.8 0 30 0 C30 8.58 30 17.16 30 26 C33.96 26.99 37.92 27.98 42 29 C50.48556349 32.41791391 58.18232807 36.87775544 65 43 C65.82113281 43.72832031 66.64226562 44.45664063 67.48828125 45.20703125 C79.54025547 56.52747441 87.46416794 71.6323567 90 88 C90 91.96 90 95.92 90 100 C79.77 100 69.54 100 59 100 C58.34 95.71 57.68 91.42 57 87 C52.31101269 73.0560279 43.64953094 65.89974415 31 59 C30.67 87.71 30.34 116.42 30 146 C33.96 146.99 37.92 147.98 42 149 C50.48556349 152.41791391 58.18232807 156.87775544 65 163 C65.82113281 163.72832031 66.64226562 164.45664062 67.48828125 165.20703125 C80.77150592 177.68399039 89.60328571 195.24473816 90.3359375 213.6015625 C90.66303786 235.16174267 86.50641273 255.11155245 71.06152344 271.04663086 C69.72247542 272.37944967 68.36183146 273.6904693 67 275 C66.34386719 275.66386719 65.68773437 276.32773437 65.01171875 277.01171875 C56.52784617 285.09592281 42.03385241 294 30 294 C30 302.58 30 311.16 30 320 C20.1 320 10.2 320 0 320 C0 311.42 0 302.84 0 294 C-5.94 292.515 -5.94 292.515 -12 291 C-20.48556349 287.58208609 -28.18232807 283.12224456 -35 277 C-35.82113281 276.27167969 -36.64226562 275.54335938 -37.48828125 274.79296875 C-49.54025547 263.47252559 -57.46416794 248.3676433 -60 232 C-60 228.04 -60 224.08 -60 220 C-49.77 220 -39.54 220 -29 220 C-28.34 224.29 -27.68 228.58 -27 233 C-22.31101269 246.9439721 -13.64953094 254.10025585 -1 261 C-0.67 232.29 -0.34 203.58 0 174 C-3.96 173.01 -7.92 172.02 -12 171 C-20.48556349 167.58208609 -28.18232807 163.12224456 -35 157 C-35.82113281 156.27167969 -36.64226562 155.54335937 -37.48828125 154.79296875 C-50.77150592 142.31600961 -59.60328571 124.75526184 -60.3359375 106.3984375 C-60.66303786 84.83825733 -56.50641273 64.88844755 -41.06152344 48.95336914 C-39.72247542 47.62055033 -38.36183146 46.3095307 -37 45 C-36.34386719 44.33613281 -35.68773437 43.67226562 -35.01171875 42.98828125 C-26.52784617 34.90407719 -12.03385241 26 0 26 C0 17.42 0 8.84 0 0 Z M-16.75 68 C-26.58100669 78.37913836 -29.50316008 90.5414324 -29.27734375 104.4375 C-28.8205161 115.51045687 -23.13572834 124.6141354 -15.875 132.6875 C-11.06026263 137.072982 -11.06026263 137.072982 0 142 C0 114.28 0 86.56 0 58 C-5.58930109 58 -12.86419947 64.415684 -16.75 68 Z M30 178 C30 205.72 30 233.44 30 262 C42.89783316 255.55108342 49.68692795 250.44914207 56 238 C56.34160156 237.33871094 56.68320312 236.67742187 57.03515625 235.99609375 C60.84888034 226.9318472 60.47750144 214.14115489 57.375 204.9375 C51.3755782 191.19145637 43.57001215 184.78500608 30 178 Z " fill="#000000" transform="translate(241,96)"/>
</svg>
