<svg width="176" height="32" viewBox="0 0 176 32" fill="none" xmlns="http://www.w3.org/2000/svg">
<path d="M34.4707 22C33.9694 22 33.7188 21.7314 33.7188 21.1943V7.40137C33.7188 6.86426 33.9694 6.5957 34.4707 6.5957H37.5859C38.0013 6.5957 38.2985 6.88216 38.4775 7.45508L41.3887 16.876C41.5176 17.2842 41.6071 17.6208 41.6572 17.8857C41.7074 18.1436 41.7503 18.4515 41.7861 18.8096H41.8506C41.8864 18.4515 41.9294 18.1436 41.9795 17.8857C42.0296 17.6208 42.1191 17.2842 42.248 16.876L45.1592 7.45508C45.3382 6.88216 45.6354 6.5957 46.0508 6.5957H49.166C49.6673 6.5957 49.918 6.86426 49.918 7.40137V21.1943C49.918 21.7314 49.6673 22 49.166 22H47.5332C47.0319 22 46.7812 21.7314 46.7812 21.1943V12.3213C46.7812 11.8916 46.7992 11.4619 46.835 11.0322H46.7598L43.6553 21.1299C43.4762 21.71 43.1683 22 42.7314 22H40.9053C40.4684 22 40.1605 21.71 39.9814 21.1299L36.877 11.0322H36.8018C36.8376 11.4619 36.8555 11.8916 36.8555 12.3213V21.1943C36.8555 21.7314 36.6048 22 36.1035 22H34.4707ZM53.7422 22C53.3125 22 53.0977 21.7852 53.0977 21.3555V11.3652C53.0977 10.9355 53.3125 10.7207 53.7422 10.7207H55.4609C55.8906 10.7207 56.1055 10.9355 56.1055 11.3652V21.3555C56.1055 21.7852 55.8906 22 55.4609 22H53.7422ZM53.7422 9.06641C53.3125 9.06641 53.0977 8.85156 53.0977 8.42188V7.04688C53.0977 6.61719 53.3125 6.40234 53.7422 6.40234H55.4609C55.8906 6.40234 56.1055 6.61719 56.1055 7.04688V8.42188C56.1055 8.85156 55.8906 9.06641 55.4609 9.06641H53.7422ZM58.4258 16.3604C58.4258 14.7848 58.766 13.417 59.4463 12.2568C60.1338 11.0895 61.319 10.5059 63.002 10.5059C63.6465 10.5059 64.1979 10.599 64.6562 10.7852C65.1146 10.9714 65.5299 11.3724 65.9023 11.9883H65.9453C65.9167 11.7018 65.9023 11.4154 65.9023 11.1289V6.78906C65.9023 6.35938 66.1172 6.14453 66.5469 6.14453H68.2656C68.6953 6.14453 68.9102 6.35938 68.9102 6.78906V21.3555C68.9102 21.7852 68.6953 22 68.2656 22H66.5684C66.2103 22 66.0169 21.7852 65.9883 21.3555L65.9453 20.7324H65.9023C65.5299 21.3483 65.1146 21.7493 64.6562 21.9355C64.1979 22.1217 63.6465 22.2148 63.002 22.2148C61.319 22.2148 60.1338 21.6348 59.4463 20.4746C58.766 19.3073 58.4258 17.9359 58.4258 16.3604ZM61.6055 16.3604C61.6055 17.5062 61.7523 18.4193 62.0459 19.0996C62.3467 19.7728 62.9805 20.1094 63.9473 20.1094C64.4844 20.1094 64.9427 19.8086 65.3223 19.207C65.709 18.5983 65.9023 17.8105 65.9023 16.8438V15.877C65.9023 14.9102 65.709 14.126 65.3223 13.5244C64.9427 12.9157 64.4844 12.6113 63.9473 12.6113C62.9805 12.6113 62.3467 12.9515 62.0459 13.6318C61.7523 14.305 61.6055 15.2145 61.6055 16.3604ZM69.5977 26.3936C69.3255 26.3434 69.2217 26.1572 69.2861 25.835L69.5225 24.6533C69.5869 24.3239 69.7695 24.2165 70.0703 24.3311C70.1992 24.3812 70.457 24.4062 70.8438 24.4062C71.2949 24.4062 71.6064 24.1699 71.7783 23.6973C71.9502 23.2246 72.0361 22.5658 72.0361 21.7207V11.3652C72.0361 10.9355 72.251 10.7207 72.6807 10.7207H74.3994C74.8291 10.7207 75.0439 10.9355 75.0439 11.3652V22.043C75.0439 23.819 74.6966 25.0078 74.002 25.6094C73.3073 26.2109 72.3799 26.5117 71.2197 26.5117C70.5752 26.5117 70.0345 26.4723 69.5977 26.3936ZM72.6807 9.06641C72.251 9.06641 72.0361 8.85156 72.0361 8.42188V7.04688C72.0361 6.61719 72.251 6.40234 72.6807 6.40234H74.3994C74.8291 6.40234 75.0439 6.61719 75.0439 7.04688V8.42188C75.0439 8.85156 74.8291 9.06641 74.3994 9.06641H72.6807ZM77.2676 16.3604C77.2676 14.5342 77.7367 13.1019 78.6748 12.0635C79.6201 11.0251 81.0238 10.5059 82.8857 10.5059C84.7477 10.5059 86.1478 11.0251 87.0859 12.0635C88.0312 13.1019 88.5039 14.5342 88.5039 16.3604C88.5039 18.1865 88.0312 19.6188 87.0859 20.6572C86.1478 21.6956 84.7477 22.2148 82.8857 22.2148C81.0238 22.2148 79.6201 21.6956 78.6748 20.6572C77.7367 19.6188 77.2676 18.1865 77.2676 16.3604ZM80.4473 16.3604C80.4473 17.721 80.6549 18.6878 81.0703 19.2607C81.4928 19.8265 82.098 20.1094 82.8857 20.1094C83.6735 20.1094 84.2751 19.8265 84.6904 19.2607C85.113 18.6878 85.3242 17.721 85.3242 16.3604C85.3242 14.9997 85.113 14.0365 84.6904 13.4707C84.2751 12.8978 83.6735 12.6113 82.8857 12.6113C82.098 12.6113 81.4928 12.8978 81.0703 13.4707C80.6549 14.0365 80.4473 14.9997 80.4473 16.3604ZM90.8027 17.3164V11.3652C90.8027 10.9355 91.0176 10.7207 91.4473 10.7207H93.166C93.5957 10.7207 93.8105 10.9355 93.8105 11.3652V16.543C93.8105 18.1042 93.918 19.0889 94.1328 19.4971C94.3477 19.9053 94.7988 20.1094 95.4863 20.1094C96.2168 20.1094 96.7718 19.8193 97.1514 19.2393C97.5309 18.652 97.7207 17.4382 97.7207 15.5977V11.3652C97.7207 10.9355 97.9355 10.7207 98.3652 10.7207H100.084C100.514 10.7207 100.729 10.9355 100.729 11.3652V21.3555C100.729 21.7852 100.514 22 100.084 22H98.3867C97.957 22 97.7422 21.7852 97.7422 21.3555V20.7324H97.6992C97.3698 21.2982 96.9508 21.6885 96.4424 21.9033C95.9339 22.111 95.3324 22.2148 94.6377 22.2148C93.542 22.2148 92.6289 21.8639 91.8984 21.1621C91.168 20.4603 90.8027 19.1784 90.8027 17.3164ZM104.295 22C103.865 22 103.65 21.7852 103.65 21.3555V11.3652C103.65 10.9355 103.865 10.7207 104.295 10.7207H105.992C106.422 10.7207 106.637 10.9355 106.637 11.3652V12.2461H106.68C106.866 11.7878 107.177 11.3831 107.614 11.0322C108.051 10.6813 108.567 10.5059 109.161 10.5059C109.569 10.5059 109.906 10.556 110.171 10.6562C110.422 10.7493 110.518 10.9212 110.461 11.1719L110.16 12.4502C110.096 12.7367 109.902 12.8226 109.58 12.708C109.394 12.6436 109.215 12.6113 109.043 12.6113C108.355 12.6113 107.786 13.0231 107.335 13.8467C106.884 14.6702 106.658 15.8698 106.658 17.4453V21.3555C106.658 21.7852 106.443 22 106.014 22H104.295ZM112.738 22C112.309 22 112.094 21.7852 112.094 21.3555V11.3652C112.094 10.9355 112.309 10.7207 112.738 10.7207H114.436C114.865 10.7207 115.08 10.9355 115.08 11.3652V11.9883H115.123C115.452 11.4225 115.871 11.0358 116.38 10.8281C116.888 10.6133 117.501 10.5059 118.217 10.5059C119.334 10.5059 120.258 10.8568 120.988 11.5586C121.719 12.2604 122.084 13.5423 122.084 15.4043V21.3555C122.084 21.7852 121.869 22 121.439 22H119.721C119.291 22 119.076 21.7852 119.076 21.3555V16.1777C119.076 14.6165 118.969 13.6318 118.754 13.2236C118.539 12.8154 118.077 12.6113 117.368 12.6113C116.616 12.6113 116.05 12.9049 115.671 13.4922C115.291 14.0723 115.102 15.2826 115.102 17.123V21.3555C115.102 21.7852 114.887 22 114.457 22H112.738ZM124.383 16.3604C124.383 14.5485 124.834 13.1198 125.736 12.0742C126.646 11.0286 127.928 10.5059 129.582 10.5059C131.501 10.5059 132.926 11 133.857 11.9883C134.788 12.9766 135.254 14.5664 135.254 16.7578C135.254 17.1875 135.053 17.4023 134.652 17.4023H127.562C127.677 18.5911 127.971 19.3395 128.443 19.6475C128.916 19.9554 129.464 20.1094 130.087 20.1094C130.681 20.1094 131.136 20.0306 131.451 19.873C131.766 19.7155 132.031 19.5007 132.246 19.2285C132.49 18.9134 132.79 18.8633 133.148 19.0781L134.223 19.7334C134.645 19.9912 134.706 20.2992 134.405 20.6572C133.968 21.18 133.456 21.5703 132.869 21.8281C132.282 22.0859 131.354 22.2148 130.087 22.2148C128.032 22.2148 126.567 21.6921 125.693 20.6465C124.82 19.6009 124.383 18.1722 124.383 16.3604ZM127.573 15.2539H132.246C132.246 14.4805 132.053 13.8503 131.666 13.3633C131.279 12.8691 130.663 12.6221 129.818 12.6221C129.145 12.6221 128.612 12.8584 128.218 13.3311C127.824 13.7965 127.609 14.4375 127.573 15.2539ZM136.897 11.5586C136.704 11 136.822 10.7207 137.252 10.7207H139.175C139.504 10.7207 139.719 10.9033 139.819 11.2686L141.441 17.2734C141.52 17.5527 141.588 17.9144 141.646 18.3584C141.71 18.7952 141.742 19.0745 141.742 19.1963H141.807C141.893 18.8167 141.953 18.516 141.989 18.2939C142.032 18.0648 142.143 17.6243 142.322 16.9727L143.858 11.2686C143.959 10.9033 144.174 10.7207 144.503 10.7207H146.426C146.848 10.7207 146.966 11 146.78 11.5586L143.16 22.4512C142.738 23.7259 142.218 24.7214 141.603 25.4375C140.987 26.1536 140.131 26.5117 139.035 26.5117C138.434 26.5117 137.896 26.4616 137.424 26.3613C137.152 26.304 137.048 26.1178 137.112 25.8027L137.349 24.6211C137.413 24.3132 137.596 24.2057 137.896 24.2988C138.118 24.3704 138.326 24.4062 138.52 24.4062C139.1 24.4062 139.54 24.1305 139.841 23.5791C140.149 23.0277 140.353 22.555 140.453 22.1611L140.485 22L136.897 11.5586ZM155.524 22C155.009 22 154.84 21.7637 155.02 21.291L160.283 7.46582C160.505 6.88574 160.842 6.5957 161.293 6.5957H162.797C163.248 6.5957 163.585 6.88574 163.807 7.46582L169.07 21.291C169.249 21.7637 169.081 22 168.565 22H166.857C166.385 22 166.055 21.7529 165.869 21.2588L164.773 18.3691H159.316L158.221 21.2588C158.035 21.7529 157.705 22 157.232 22H155.524ZM160.315 15.7051H163.774L162.453 12.2891C162.296 11.888 162.199 11.598 162.163 11.4189C162.134 11.2327 162.102 10.9606 162.066 10.6025H162.023C161.988 10.9606 161.952 11.2327 161.916 11.4189C161.887 11.598 161.794 11.888 161.637 12.2891L160.315 15.7051ZM171.369 22C170.939 22 170.725 21.7852 170.725 21.3555V11.3652C170.725 10.9355 170.939 10.7207 171.369 10.7207H173.088C173.518 10.7207 173.732 10.9355 173.732 11.3652V21.3555C173.732 21.7852 173.518 22 173.088 22H171.369ZM171.369 9.06641C170.939 9.06641 170.725 8.85156 170.725 8.42188V7.04688C170.725 6.61719 170.939 6.40234 171.369 6.40234H173.088C173.518 6.40234 173.732 6.61719 173.732 7.04688V8.42188C173.732 8.85156 173.518 9.06641 173.088 9.06641H171.369Z" fill="white"/>
<path d="M1.89813 6.77481L2.39603 7.9313C2.43609 8.0229 2.56581 8.0229 2.60588 7.9313L3.11904 6.75382C3.24304 6.46947 3.47005 6.24237 3.75429 6.11832L4.93132 5.60496C5.02289 5.56489 5.02289 5.43511 4.93132 5.39504L3.75429 4.88168C3.47005 4.75763 3.24304 4.53053 3.11904 4.24618L2.60588 3.0687C2.56581 2.9771 2.43609 2.9771 2.39603 3.0687L1.88287 4.24618C1.75887 4.53053 1.53186 4.75763 1.24762 4.88168L0.0686761 5.39695C-0.022892 5.43702 -0.022892 5.56679 0.0686761 5.60687L1.2686 6.1374C1.55284 6.26336 1.77795 6.49237 1.90195 6.77672L1.89813 6.77481Z" fill="#9DE8EE"/>
<path d="M5.04068 2.56356L5.75984 2.88214C5.92957 2.9574 6.06605 3.09394 6.13955 3.26548L6.43701 3.95864C6.4615 4.01291 6.5385 4.01466 6.56299 3.95864L6.87095 3.25323C6.94619 3.08168 7.08093 2.9469 7.25241 2.87163L7.95932 2.56356C8.01356 2.53905 8.01356 2.46204 7.95932 2.43753L7.25241 2.12946C7.08093 2.05419 6.94619 1.91941 6.87095 1.74787L6.56299 1.0407C6.5385 0.986434 6.4615 0.986434 6.43701 1.0407L6.12905 1.74787C6.05381 1.91941 5.91907 2.05419 5.74759 2.12946L5.04068 2.43753C4.98644 2.46204 4.98644 2.53905 5.04068 2.56356Z" fill="#9DE8EE"/>
<path d="M21.4554 7.27264C19.9965 7.27264 18.8131 8.4325 18.8131 9.86248C18.8131 11.2941 19.9965 12.4523 21.4554 12.4523C22.9161 12.4523 24.0995 11.2941 24.0995 9.86248C24.0995 8.4325 22.9161 7.27264 21.4554 7.27264ZM13.3166 11.0831C13.3046 11.0831 13.2942 11.0848 13.2822 11.0865H13.2805C13.0841 11.0949 12.9101 11.1844 12.7895 11.3195L8.75201 15.2768V15.2785C8.62971 15.3983 8.5522 15.5638 8.54876 15.7478V20.62C8.54876 20.8023 8.62282 20.9762 8.75373 21.1062C8.88464 21.2345 9.06378 21.3071 9.24981 21.3071H24.4061C24.7936 21.3071 25.1071 20.9999 25.1071 20.62V18.3493C25.1071 18.1653 25.033 17.9998 24.9159 17.8765L24.9125 17.8732L20.3737 13.4211V13.4194C20.2462 13.2978 20.0739 13.2235 19.8827 13.2235C19.8724 13.2235 19.8621 13.2252 19.85 13.2269H19.8483C19.6502 13.2336 19.4762 13.3231 19.3557 13.4582H19.3539L17.6917 15.0891L13.8092 11.2803H13.8075C13.6817 11.1587 13.5078 11.0831 13.3166 11.0831ZM25.2327 6.37427H25.2448C25.4394 6.37596 25.5962 6.52959 25.5979 6.72206V21.4623C25.5962 21.6531 25.4394 21.8084 25.2448 21.8101H8.41065C8.21601 21.8084 8.05754 21.6547 8.05754 21.4623V6.72206C8.05754 6.52959 8.21601 6.37596 8.41065 6.37427H25.2327ZM25.2431 5C25.2362 5 25.231 5 25.2241 5.00169L8.4279 5H8.42446H8.4124H8.41068C7.44608 5.00169 6.66059 5.76141 6.65543 6.70853V21.4743C6.6606 22.4231 7.44608 23.1828 8.41068 23.1845H25.243C26.2094 23.1828 26.9931 22.4231 27 21.4743V6.70853C26.9931 5.76141 26.2094 5.00169 25.2431 5ZM5.2587 8.62643H5.25181C5.17947 8.62643 5.10885 8.63824 5.04339 8.6585L2.31838 9.37432H2.31666C2.31149 9.37432 2.30805 9.376 2.30288 9.37769C1.371 9.62249 0.81292 10.5561 1.05752 11.4729V11.4746L4.95729 25.7355C5.17088 26.5002 5.87709 27 6.64877 27C6.80035 27 6.95366 26.9814 7.10526 26.9426L13.2514 25.3269C13.5786 25.2408 13.8404 24.9892 13.8404 24.6465V24.6448C13.8404 24.2633 13.5252 23.9543 13.1359 23.9543C13.0429 23.9543 12.9568 23.983 12.8724 24.005L6.74214 25.6139C6.71114 25.6224 6.68185 25.6257 6.65257 25.6257C6.49583 25.6257 6.35286 25.5244 6.30807 25.3691L2.41523 11.1303C2.36699 10.9445 2.47723 10.7555 2.66499 10.7048L5.33316 10.0042C5.67249 9.92313 5.96188 9.67327 5.96188 9.31706C5.96188 8.9355 5.64629 8.62643 5.2587 8.62643Z" fill="#137A83"/>
</svg>
